<svg width="14" height="14" viewBox="0 0 14 14" fill="none" xmlns="http://www.w3.org/2000/svg">
    <path fill-rule="evenodd" clip-rule="evenodd" d="M5.06012 3.4939C5.06012 3.25227 5.256 3.0564 5.49762 3.0564L10.5051 3.0564C10.6212 3.0564 10.7324 3.10249 10.8145 3.18454C10.8965 3.26659 10.9426 3.37786 10.9426 3.4939L10.9426 8.50139C10.9426 8.74302 10.7467 8.93889 10.5051 8.93889C10.2635 8.93889 10.0676 8.74302 10.0676 8.50139L10.0676 3.9314L5.49762 3.9314C5.256 3.9314 5.06012 3.73552 5.06012 3.4939Z" fill="#1A932E"/>
    <path fill-rule="evenodd" clip-rule="evenodd" d="M3.18387 10.8154C3.01302 10.6445 3.01302 10.3675 3.18387 10.1967L10.1259 3.25466C10.2967 3.08381 10.5738 3.08381 10.7446 3.25466C10.9155 3.42552 10.9155 3.70253 10.7446 3.87338L3.80259 10.8154C3.63173 10.9863 3.35473 10.9863 3.18387 10.8154Z" fill="#1A932E"/>
</svg>
