<svg width="14" height="14" viewBox="0 0 14 14" fill="none" xmlns="http://www.w3.org/2000/svg">
    <path fill-rule="evenodd" clip-rule="evenodd" d="M10.5059 5.06141C10.7475 5.06141 10.9434 5.25728 10.9434 5.49891L10.9434 10.5064C10.9434 10.6224 10.8973 10.7337 10.8152 10.8158C10.7332 10.8978 10.6219 10.9439 10.5059 10.9439L5.49836 10.9439C5.25674 10.9439 5.06087 10.748 5.06086 10.5064C5.06086 10.2648 5.25674 10.0689 5.49836 10.0689L10.0684 10.0689L10.0684 5.49891C10.0684 5.25728 10.2642 5.06141 10.5059 5.06141Z" fill="#EE201C"/>
    <path fill-rule="evenodd" clip-rule="evenodd" d="M3.18454 3.18485C3.35539 3.01399 3.6324 3.01399 3.80326 3.18485L10.7453 10.1269C10.9161 10.2977 10.9161 10.5747 10.7453 10.7456C10.5744 10.9164 10.2974 10.9164 10.1266 10.7456L3.18454 3.80357C3.01368 3.63271 3.01368 3.3557 3.18454 3.18485Z" fill="#EE201C"/>
</svg>
