<?xml version="1.0" encoding="UTF-8"?>
<svg version="1.1" xmlns="http://www.w3.org/2000/svg" width="256" height="256">
    <path d="M0 0 C0.68633451 -0.00311998 1.37266903 -0.00623996 2.07980156 -0.00945449 C4.39068951 -0.01746253 6.7013169 -0.01110008 9.01220703 -0.00482178 C10.66440994 -0.0075304 12.31661164 -0.0110906 13.96881104 -0.01544189 C18.46458123 -0.02458352 22.96025994 -0.02101437 27.4560318 -0.01468372 C32.15298211 -0.00963288 36.8499244 -0.01431262 41.546875 -0.01745605 C49.43572399 -0.02109838 57.32453559 -0.01628963 65.21337891 -0.0067749 C74.3440418 0.00411016 83.47461538 0.00058477 92.60527611 -0.01042771 C100.43374078 -0.01949302 108.26217852 -0.02078958 116.09064674 -0.01555037 C120.7710377 -0.0124265 125.45138662 -0.01203274 130.1317749 -0.01862335 C134.53120877 -0.02438521 138.93052709 -0.02042131 143.32994843 -0.00883484 C144.94811562 -0.00618201 146.56629248 -0.00696389 148.18445587 -0.01136017 C150.38644987 -0.01679269 152.5880692 -0.01000985 154.79003906 0 C156.64171188 0.00113108 156.64171188 0.00113108 158.53079224 0.002285 C161.39501953 0.25396729 161.39501953 0.25396729 163.39501953 2.25396729 C163.67349243 5.30380249 163.67349243 5.30380249 163.71386719 9.27398682 C163.72893562 10.35707123 163.72893562 10.35707123 163.74430847 11.46203613 C163.77525025 13.85360909 163.79220579 16.24506957 163.80908203 18.63677979 C163.82778487 20.29302953 163.84735762 21.94926967 163.86776733 23.60549927 C163.91918808 27.96857037 163.95876039 32.33167241 163.99591064 36.69488525 C164.03588816 41.1456473 164.08700893 45.5962796 164.13720703 50.04693604 C164.23408396 58.78252463 164.31845085 67.5181772 164.39501953 76.25396729 C165.00445404 75.64231216 165.61388855 75.03065704 166.24179077 74.40046692 C171.97797089 68.64427228 177.71653713 62.8904696 183.45781517 57.13935947 C186.40956679 54.18238322 189.3603785 51.22448141 192.30908203 48.26446533 C195.15332209 45.40938157 197.99997866 42.55672815 200.84834671 39.70576286 C201.93610167 38.61615634 203.02297428 37.52566825 204.1089592 36.43429756 C205.6269727 34.90905401 207.14805741 33.38693931 208.66992188 31.86553955 C209.53596039 30.99728043 210.4019989 30.1290213 211.29428101 29.23445129 C213.67462982 26.99036299 214.82188372 26.36313601 218.02001953 25.75396729 C223.21242195 26.52321209 225.74979316 29.65342845 229.39501953 33.25396729 C230.73113281 34.49920166 230.73113281 34.49920166 232.09423828 35.76959229 C240.22534825 43.51792532 240.22534825 43.51792532 240.39501953 48.25396729 C239.07013033 53.6077124 235.39653083 56.30931054 231.39086914 59.77349854 C229.89706789 61.09741943 228.40436797 62.42258374 226.91261292 63.74880981 C226.12000124 64.44984707 225.32738956 65.15088432 224.51075935 65.87316513 C181.33088524 100.31743007 181.33088524 100.31743007 158.92948914 147.74047852 C158.65511242 158.79792936 160.28890152 169.66346389 163.39501953 180.25396729 C163.9601123 180.24349365 164.52520508 180.23302002 165.10742188 180.222229 C167.66157606 180.1807194 170.21565935 180.15465769 172.77001953 180.12896729 C173.65947266 180.11220947 174.54892578 180.09545166 175.46533203 180.07818604 C176.31611328 180.07174072 177.16689453 180.06529541 178.04345703 180.05865479 C178.82897949 180.04818115 179.61450195 180.03770752 180.42382812 180.0269165 C182.39501953 180.25396729 182.39501953 180.25396729 184.39501953 182.25396729 C185.05583407 189.91941589 183.47799233 195.90764101 178.70751953 202.00396729 C173.95232389 207.19792163 167.56457116 210.05677832 160.55692101 210.38818836 C158.90058364 210.39459858 158.90058364 210.39459858 157.21078491 210.40113831 C155.94078644 210.40829361 154.67078796 210.41544891 153.36230469 210.42282104 C151.9570315 210.42566115 150.55175804 210.4283729 149.14648438 210.43096924 C147.66460003 210.43723674 146.18271725 210.44388379 144.70083618 210.45088196 C139.83588754 210.47189453 134.97093868 210.48228323 130.10595703 210.49224854 C128.42838144 210.49629744 126.75080601 210.50041441 125.07323074 210.50459862 C117.18912826 210.52364586 109.30503511 210.53787664 101.42091405 210.54621059 C92.33460267 210.555975 83.24853541 210.58227558 74.16231 210.62271148 C67.13028207 210.65292633 60.09832389 210.66768463 53.06623232 210.6709916 C48.87065771 210.67333638 44.67534402 210.68222167 40.47983932 210.70745277 C36.52841379 210.73083216 32.57741916 210.73492748 28.62594223 210.72469139 C27.18204815 210.72419827 25.73813215 210.73045222 24.29430389 210.74424744 C14.7596815 210.83019057 6.34356509 210.32196282 -1.26123047 204.07037354 C-1.86966797 203.32658447 -2.47810547 202.58279541 -3.10498047 201.81646729 C-3.73404297 201.07525635 -4.36310547 200.33404541 -5.01123047 199.57037354 C-8.38968564 194.66002079 -8.89503598 190.30414706 -8.85894775 184.45301819 C-8.86206774 183.67428225 -8.86518772 182.89554631 -8.86840224 182.09321231 C-8.87637036 179.48762167 -8.87006332 176.88226468 -8.86376953 174.27667236 C-8.86647985 172.40728112 -8.87004102 170.53789095 -8.87438965 168.66850281 C-8.88350911 163.59441964 -8.8799717 158.52041777 -8.87363148 153.44633317 C-8.86857147 148.14080983 -8.87326272 142.8352935 -8.87640381 137.5297699 C-8.88004249 128.62312569 -8.8752459 119.71651466 -8.86572266 110.80987549 C-8.85482829 100.50161232 -8.85837121 90.19342821 -8.86937547 79.88516694 C-8.87843918 71.04178909 -8.87973842 62.19843508 -8.87449813 53.35505408 C-8.87137466 48.069965 -8.87097959 42.78491314 -8.87757111 37.49982643 C-8.88333098 32.53484311 -8.87937272 27.56996221 -8.86778259 22.60499001 C-8.86512914 20.77880015 -8.86591271 18.95260174 -8.87030792 17.12641525 C-8.87573765 14.64214735 -8.86896099 12.15821192 -8.85894775 9.67396545 C-8.8634092 8.94392156 -8.86787064 8.21387766 -8.87246728 7.46171123 C-8.81662664 0.36592455 -6.6751772 0.00407747 0 0 Z M-0.60498047 9.25396729 C-0.66324839 40.16216531 -0.66324839 40.16216531 -0.70263672 71.07037354 C-0.7145045 83.67439399 -0.72845716 96.27838772 -0.75585938 108.88238525 C-0.77580661 118.06175443 -0.78870009 127.24110192 -0.79315746 136.42049217 C-0.79576257 141.27996888 -0.80187667 146.13938353 -0.81644058 150.99884033 C-0.83004553 155.57553434 -0.83419721 160.15214091 -0.83119583 164.72885323 C-0.83174469 166.40578245 -0.83570475 168.08271469 -0.84339142 169.75962639 C-0.85339837 172.05594186 -0.85092859 174.35193076 -0.8454895 176.64825439 C-0.84733309 177.93139023 -0.84917667 179.21452606 -0.85107613 180.5365448 C-0.36769084 187.83836941 1.10090161 193.08017023 6.39501953 198.25396729 C10.82324474 201.14194025 14.14431091 201.8876735 19.39501953 201.25396729 C25.13869103 199.51113567 28.35379714 196.69675324 31.48486328 191.64459229 C32.82023731 188.42123427 32.82023731 188.42123427 33.39501953 181.25396729 C93.29001953 180.75896729 93.29001953 180.75896729 154.39501953 180.25396729 C154.39501953 166.06396729 154.39501953 151.87396729 154.39501953 137.25396729 C143.56573862 142.38362666 132.76810402 147.50913378 122.03173828 152.82037354 C118.47535228 154.22230013 116.16597484 154.57552161 112.39501953 154.25396729 C110.86501229 149.52590809 112.05170256 147.05830155 114.21923828 142.70318604 C114.52191116 142.08554886 114.82458405 141.46791168 115.13642883 140.83155823 C116.10560693 138.8615263 117.09362084 136.90166173 118.08251953 134.94146729 C118.72896705 133.63545216 119.37416227 132.32881637 120.01806641 131.02154541 C121.79437866 127.42425606 123.59289835 123.83840611 125.39501953 120.25396729 C125.61365158 119.64525284 125.83228363 119.03653839 126.05754089 118.40937805 C128.01875331 113.44512395 131.0619231 110.66408079 135.19946289 107.42999268 C145.32596654 99.35514303 154.84772424 91.43009819 156.44238281 77.909729 C157.30435706 67.49747345 156.57377842 57.10111617 155.95751953 46.69146729 C155.44189453 34.33709229 154.92626953 21.98271729 154.39501953 9.25396729 C103.24501953 9.25396729 52.09501953 9.25396729 -0.60498047 9.25396729 Z M217.39501953 36.25396729 C215.81661381 37.81101923 215.81661381 37.81101923 214.27001953 39.75396729 C213.32126953 40.90896729 212.37251953 42.06396729 211.39501953 43.25396729 C215.02501953 46.88396729 218.65501953 50.51396729 222.39501953 54.25396729 C226.40342293 52.24976559 227.8091161 50.76340765 230.39501953 47.25396729 C228.60929701 45.41449392 226.81699505 43.58238987 225.02001953 41.75396729 C224.51212891 41.22931885 224.00423828 40.70467041 223.48095703 40.16412354 C222.15669349 38.82243547 220.77896088 37.53400913 219.39501953 36.25396729 C218.73501953 36.25396729 218.07501953 36.25396729 217.39501953 36.25396729 Z M204.39501953 49.25396729 C202.91001953 51.23396729 202.91001953 51.23396729 201.39501953 53.25396729 C205.02501953 56.88396729 208.65501953 60.51396729 212.39501953 64.25396729 C213.71501953 63.59396729 215.03501953 62.93396729 216.39501953 62.25396729 C214.86065377 58.59831989 212.64519531 56.26698105 209.83251953 53.50396729 C209.02685547 52.70474854 208.22119141 51.90552979 207.39111328 51.08209229 C205.72323362 49.14140098 205.72323362 49.14140098 204.39501953 49.25396729 Z M189.6558075 63.74433899 C188.89515739 64.51577492 188.89515739 64.51577492 188.11914062 65.30279541 C187.58240219 65.83924179 187.04566376 66.37568817 186.49266052 66.9283905 C184.71314695 68.70930155 182.94082871 70.49720074 181.16845703 72.28521729 C179.93863757 73.51876539 178.70837688 74.75187375 177.47769165 75.98455811 C174.23462308 79.23527485 170.99760425 82.49195233 167.76177979 85.74987793 C164.46084516 89.07124551 161.15426456 92.38698145 157.84814453 95.70318604 C151.35820929 102.21459205 144.87464684 108.73230471 138.39501953 115.25396729 C139.33379879 116.36056138 140.27422869 117.46575527 141.21533203 118.57037354 C141.73885254 119.18598145 142.26237305 119.80158936 142.80175781 120.43585205 C144.89659863 122.82633314 147.11474424 125.04075892 149.39501953 127.25396729 C153.24810719 125.67872983 155.84245868 123.07649284 158.71435547 120.16168213 C159.23187881 119.64445084 159.74940216 119.12721954 160.28260803 118.59431458 C161.98632242 116.88921058 163.68284931 115.17713961 165.37939453 113.46490479 C166.5615136 112.27905428 167.74407598 111.09364555 168.92706299 109.90866089 C172.03530681 106.79279091 175.1374969 103.67096095 178.23846436 100.54785156 C181.40550456 97.36033109 184.5782334 94.17848409 187.75048828 90.99615479 C193.97091356 84.75429752 200.1849549 78.50613243 206.39501953 72.25396729 C205.45316993 71.14776682 204.51025108 70.04247668 203.56689453 68.93756104 C203.04192383 68.32195312 202.51695312 67.70634521 201.97607422 67.07208252 C199.87798452 64.65940896 197.75335621 62.41577591 195.39501953 60.25396729 C192.54876168 60.25396729 191.58563162 61.82591208 189.6558075 63.74433899 Z M132.39501953 124.25396729 C131.19785294 126.70800953 130.01208494 129.16648408 128.83251953 131.62896729 C128.49027344 132.32763916 128.14802734 133.02631104 127.79541016 133.74615479 C126.93471241 135.55448945 126.15849517 137.40248685 125.39501953 139.25396729 C125.72501953 139.91396729 126.05501953 140.57396729 126.39501953 141.25396729 C131.67501953 138.61396729 136.95501953 135.97396729 142.39501953 133.25396729 C141.03376953 131.58334229 141.03376953 131.58334229 139.64501953 129.87896729 C139.13455078 129.25248291 138.62408203 128.62599854 138.09814453 127.98052979 C136.31302472 126.17084411 134.71552309 125.25279273 132.39501953 124.25396729 Z M41.39501953 189.25396729 C37.92605674 195.0252262 37.92605674 195.0252262 36.39501953 201.25396729 C52.68517491 201.34752645 68.97524276 201.41800304 85.26560211 201.46121597 C92.82999163 201.48181635 100.39421393 201.50988835 107.95849609 201.5557251 C114.55371831 201.59567056 121.14881939 201.62141845 127.74415922 201.63032126 C131.23442303 201.63552307 134.72434035 201.64769566 138.2144928 201.67688751 C142.1165299 201.70925782 146.01823211 201.70992175 149.92041016 201.70806885 C151.069841 201.72244995 152.21927185 201.73683105 153.40353394 201.75164795 C159.83884089 201.7186138 165.11686702 201.20418785 170.39501953 197.25396729 C172.54379245 194.86795324 174.39501953 192.58805247 174.39501953 189.25396729 C130.50501953 189.25396729 86.61501953 189.25396729 41.39501953 189.25396729 Z " fill="#FFFFFF" transform="translate(12.60498046875,22.74603271484375)"/>
    <path d="M0 0 C1.49923773 -0.00591473 2.99847073 -0.01316389 4.49769592 -0.02168274 C7.63405027 -0.03354018 10.76969395 -0.02689507 13.90600586 -0.00756836 C17.91238547 0.01530549 21.91664224 -0.0114527 25.92281246 -0.05263042 C29.01744323 -0.07828857 32.11157148 -0.07560699 35.20627022 -0.06473732 C36.6825713 -0.06325699 38.15891212 -0.07086693 39.63511467 -0.0879879 C52.57295339 -0.21368764 52.57295339 -0.21368764 57.17407227 3.49682617 C59.89125212 6.2437242 60.83465376 8.90431872 60.99609375 12.7421875 C60.57063509 16.68949836 58.76543705 19.51471278 56.28515625 22.51171875 C52.98438738 25.12482744 49.50488833 24.84170891 45.48120117 24.8762207 C44.17942429 24.88905594 42.8776474 24.90189117 41.53642273 24.91511536 C40.11282736 24.92328315 38.68922768 24.9307268 37.265625 24.9375 C36.54771601 24.94157553 35.82980701 24.94565105 35.0901432 24.94985008 C31.29016026 24.97069348 27.49021325 24.98500258 23.69018555 24.99438477 C19.77270129 25.00544509 15.85578569 25.03984478 11.93850231 25.07955647 C8.91952993 25.10574634 5.90069258 25.11407866 2.88161659 25.11766624 C1.43796257 25.12252622 -0.00568566 25.13412353 -1.44922829 25.15270424 C-3.47358052 25.17714112 -5.4982104 25.17370642 -7.52270508 25.16918945 C-9.24787102 25.17798882 -9.24787102 25.17798882 -11.00788879 25.18696594 C-14.96814118 24.58464941 -17.11098918 23.19188751 -20.21484375 20.69921875 C-23.10080554 16.00953084 -23.53764924 12.87572546 -22.34375 7.69140625 C-17.31965928 -1.17463619 -9.01932206 -0.05254457 0 0 Z M-12.21484375 9.69921875 C-12.59703142 11.35536532 -12.92879477 13.02378899 -13.21484375 14.69921875 C-12.15835845 15.97968508 -12.15835845 15.97968508 -9.74082947 15.81947327 C-8.64162674 15.81725266 -7.54242401 15.81503204 -6.40991211 15.81274414 C-4.54809547 15.81263084 -4.54809547 15.81263084 -2.64866638 15.81251526 C-1.28400635 15.80740786 0.08065327 15.80219185 1.4453125 15.796875 C2.83393808 15.79501075 4.22256432 15.79358688 5.6111908 15.79258728 C9.2723674 15.78876262 12.93350455 15.77893278 16.59466553 15.7678833 C20.32807888 15.75766807 24.06149859 15.75308942 27.79492188 15.74804688 C35.12501802 15.73731046 42.45508161 15.72023466 49.78515625 15.69921875 C50.44515625 14.37921875 51.10515625 13.05921875 51.78515625 11.69921875 C49.94749937 9.43568647 49.94749937 9.43568647 47.19088745 9.45870972 C46.09390533 9.46315094 44.99692322 9.46759216 43.86669922 9.47216797 C42.62556366 9.47231903 41.3844281 9.47247009 40.10568237 9.47262573 C38.74623455 9.48283975 37.38678835 9.49327175 36.02734375 9.50390625 C34.64014896 9.50763591 33.25295154 9.5104831 31.86575317 9.51248169 C28.21275574 9.52012191 24.55991708 9.53977359 20.90698242 9.56188965 C17.18019763 9.58233979 13.45338721 9.59148162 9.7265625 9.6015625 C2.412688 9.62301924 -4.90105564 9.65715972 -12.21484375 9.69921875 Z " fill="#FFFFFF" transform="translate(93.21484375,55.30078125)"/>
    <path d="M0 0 C0.89805862 -0.00960754 1.79611725 -0.01921509 2.72138977 -0.02911377 C3.6849791 -0.03336365 4.64856842 -0.03761353 5.64135742 -0.04199219 C6.64011398 -0.04769226 7.63887054 -0.05339233 8.66789246 -0.05926514 C10.78021183 -0.06870447 12.89254587 -0.07524488 15.00488281 -0.07910156 C18.22446596 -0.08879983 21.44340859 -0.11983069 24.6628418 -0.15136719 C26.71817656 -0.15789845 28.77351588 -0.16314844 30.82885742 -0.16699219 C31.78637405 -0.17933899 32.74389069 -0.19168579 33.73042297 -0.20440674 C40.11361639 -0.1832979 45.368881 0.40223216 50.30932617 4.84863281 C51.94311512 8.20697675 52.5555917 11.45896764 52.43432617 15.16113281 C50.92646988 19.36725826 49.28845603 21.87274321 45.43432617 24.16113281 C42.57611216 25.11387082 40.75125069 25.29778464 37.78271484 25.32226562 C36.37060982 25.33667694 36.37060982 25.33667694 34.92997742 25.35137939 C33.40652458 25.35775421 33.40652458 25.35775421 31.85229492 25.36425781 C30.80535965 25.36995789 29.75842438 25.37565796 28.67976379 25.38153076 C26.46311453 25.39098048 24.24645122 25.39751463 22.02978516 25.40136719 C18.64550127 25.41106497 15.26182669 25.44208594 11.87768555 25.47363281 C9.72339228 25.4801638 7.56909466 25.48541389 5.41479492 25.48925781 C4.40523239 25.50160461 3.39566986 25.51395142 2.35551453 25.52667236 C-3.93015584 25.50683356 -8.71321456 25.01359208 -13.37817383 20.34863281 C-15.47730474 16.48181271 -15.81768761 13.39600032 -14.94067383 9.09863281 C-13.31180664 5.61878019 -11.51040349 3.6150742 -8.56567383 1.16113281 C-5.68633595 0.2007221 -3.02227827 0.02621495 0 0 Z M-5.56567383 10.16113281 C-5.56567383 11.81113281 -5.56567383 13.46113281 -5.56567383 15.16113281 C-3.25525752 16.31634097 -1.9180172 16.29363939 0.65283203 16.30639648 C1.95945045 16.31596626 1.95945045 16.31596626 3.29246521 16.32572937 C4.23517776 16.32684219 5.17789032 16.32795502 6.14916992 16.32910156 C7.11585098 16.33242996 8.08253204 16.33575836 9.07850647 16.33918762 C11.12541222 16.34425598 13.17232626 16.34659598 15.21923828 16.34643555 C18.35552546 16.34862145 21.49146068 16.36677656 24.62768555 16.38574219 C26.61401247 16.3886762 28.60034106 16.39066094 30.58666992 16.39160156 C31.99770241 16.40237984 31.99770241 16.40237984 33.4372406 16.41337585 C34.74858727 16.40876091 34.74858727 16.40876091 36.08642578 16.40405273 C36.85538681 16.40547775 37.62434784 16.40690277 38.41661072 16.40837097 C40.74889072 16.27597888 40.74889072 16.27597888 43.43432617 14.16113281 C43.08645909 12.18576536 43.08645909 12.18576536 42.43432617 10.16113281 C40.11591633 9.00192789 38.77993486 9.03439993 36.19995117 9.03173828 C35.32564453 9.02858612 34.45133789 9.02543396 33.55053711 9.02218628 C32.6046875 9.02421051 31.65883789 9.02623474 30.68432617 9.02832031 C29.71527344 9.02736359 28.7462207 9.02640686 27.74780273 9.02542114 C25.6966953 9.02473992 23.64558572 9.0265902 21.59448242 9.03076172 C18.44729794 9.03611077 15.30025619 9.03081477 12.15307617 9.02441406 C10.16349252 9.02507485 8.17390896 9.02635604 6.18432617 9.02832031 C5.23847656 9.02629608 4.29262695 9.02427185 3.31811523 9.02218628 C2.44380859 9.02533844 1.56950195 9.0284906 0.66870117 9.03173828 C-0.10248047 9.03253387 -0.87366211 9.03332947 -1.66821289 9.03414917 C-3.65403058 9.04427311 -3.65403058 9.04427311 -5.56567383 10.16113281 Z " fill="#FFFFFF" transform="translate(85.565673828125,104.8388671875)"/>
    <path d="M0 0 C1.18916016 -0.020625 2.37832031 -0.04125 3.60351562 -0.0625 C4.75142578 -0.06765625 5.89933594 -0.0728125 7.08203125 -0.078125 C8.13237549 -0.0874707 9.18271973 -0.09681641 10.26489258 -0.10644531 C14.82897879 0.45019706 18.26261983 2.74014379 21.1875 6.25 C22.39393566 9.86930698 22.51018559 12.44231005 22.1875 16.25 C20.16083762 19.95390021 18.70705484 21.90363011 15.1875 24.25 C11.07929265 24.63598073 6.97064945 24.57917693 2.84570312 24.56567383 C0.82626999 24.56252149 -1.19168625 24.58595198 -3.2109375 24.61132812 C-5.1290625 24.61229492 -5.1290625 24.61229492 -7.0859375 24.61328125 C-8.84043213 24.61775269 -8.84043213 24.61775269 -10.63037109 24.62231445 C-14.13169467 24.21265368 -16.00291226 23.33976812 -18.8125 21.25 C-21.31894163 17.0914023 -21.93832838 13.20944138 -21.3125 8.4375 C-16.87667669 -0.98862453 -9.05342 0.03887674 0 0 Z M-10.8125 9.25 C-11.19468767 10.90614657 -11.52645102 12.57457024 -11.8125 14.25 C-10.78535339 15.5005313 -10.78535339 15.5005313 -8.58764648 15.36352539 C-7.62930908 15.35828857 -6.67097168 15.35305176 -5.68359375 15.34765625 C-4.64912109 15.34443359 -3.61464844 15.34121094 -2.54882812 15.33789062 C-1.46021484 15.32951172 -0.37160156 15.32113281 0.75 15.3125 C1.84248047 15.30798828 2.93496094 15.30347656 4.06054688 15.29882812 C6.76958495 15.28699826 9.47851599 15.27051543 12.1875 15.25 C12.8689823 13.35820797 12.8689823 13.35820797 13.1875 11.25 C11.39040436 9.03129007 11.39040436 9.03129007 8.94091797 9.02294922 C7.57410889 9.03865967 7.57410889 9.03865967 6.1796875 9.0546875 C5.19355469 9.06113281 4.20742187 9.06757813 3.19140625 9.07421875 C2.15886719 9.09097656 1.12632813 9.10773438 0.0625 9.125 C-0.97777344 9.13402344 -2.01804687 9.14304688 -3.08984375 9.15234375 C-5.66429092 9.17596253 -8.23828212 9.20889851 -10.8125 9.25 Z " fill="#FFFFFF" transform="translate(91.8125,154.75)"/>
    <path d="M0 0 C4.12593192 2.87855716 7.06537651 6.00862953 8.6875 10.875 C9.41877952 17.73224405 8.89333127 22.34101149 4.6875 27.875 C-0.13341922 31.61367205 -3.96025627 33.25445708 -10.12109375 33.15234375 C-15.59779068 32.45921455 -19.35522 30.0777364 -22.75 25.8125 C-25.55520882 20.53870743 -26.3628955 15.51458697 -24.69921875 9.75 C-22.68454712 5.06389153 -20.06196198 2.18627005 -15.59375 -0.28125 C-10.28184176 -2.24592839 -5.28236982 -1.79401239 0 0 Z M-15.3125 11.875 C-16.47698881 14.77851124 -16.47698881 14.77851124 -16.3125 17.875 C-14.36923841 21.37287086 -13.1484715 22.61375891 -9.3125 23.8125 C-6.18091304 23.8777414 -4.83443396 23.6763814 -2.3125 21.875 C0.03299674 18.35675489 0.26741403 17.01724306 -0.3125 12.875 C-2.79852449 9.51155511 -4.22675523 8.07442251 -8.375 7.3125 C-12.02505579 8.01144685 -13.16814611 8.85702045 -15.3125 11.875 Z " fill="#FFFFFF" transform="translate(51.3125,52.125)"/>
    <path d="M0 0 C3.78306891 3.14066099 5.76283434 6.22524582 6.33984375 11.20703125 C6.53719942 16.47248063 6.1554522 20.37926852 3.0625 24.8125 C-1.16629099 28.96235356 -4.24977192 30.9651602 -10.1875 31.0625 C-14.86601951 31.00745859 -18.02457144 30.58018118 -21.9375 27.8125 C-26.06897623 23.45149731 -27.77565065 19.85180185 -28.25 13.875 C-28.08910253 8.52515896 -26.03862512 5.12194609 -22.625 1.0625 C-16.09164383 -4.40728656 -7.15901203 -4.7018935 0 0 Z M-16.9375 8.8125 C-19.28272935 11.69762978 -19.28272935 11.69762978 -18.8125 15.3125 C-18.22855338 18.77452048 -18.22855338 18.77452048 -16.25 20.75 C-13.1510552 22.1738395 -11.31567188 22.36403827 -7.9375 21.8125 C-4.62080721 19.36103142 -3.17669372 17.85625441 -2.25 13.8125 C-3.26284808 9.39279931 -5.19516579 8.30738947 -8.9375 5.8125 C-12.57077194 5.8125 -13.98485927 6.76836411 -16.9375 8.8125 Z " fill="#FFFFFF" transform="translate(53.9375,153.1875)"/>
    <path d="M0 0 C5.01791684 2.41935276 8.49958655 5.9991731 11 11 C11.78953277 17.69974953 11.46602764 22.88558491 7.41015625 28.41015625 C3.70107279 32.59186531 -0.24816962 33.64084851 -5.6640625 34.0546875 C-10.48256359 33.94187978 -14.23548113 32.62642609 -17.796875 29.34375 C-21.80203228 24.8427161 -23.37277546 21.40369682 -23.28125 15.19140625 C-22.61296965 9.9843885 -20.16606282 6.08277262 -16.375 2.5625 C-11.16555332 -0.86476755 -6.11829016 -0.57659279 0 0 Z M-13 12 C-14.1716367 15.36760187 -14.1716367 15.36760187 -14 19 C-12.20121842 22.18245972 -10.94890419 23.61070597 -7.5625 25 C-4.23121857 25 -2.6617637 23.9423681 0 22 C2.27208703 20.13287971 2.27208703 20.13287971 2.375 17.1875 C1.90344753 13.17930397 1.03894259 11.64933456 -2 9 C-6.5576843 8.34890224 -9.92900789 8.33843249 -13 12 Z " fill="#FFFFFF" transform="translate(49,101)"/>
</svg>