<svg width="22" height="22" viewBox="0 0 22 22" fill="none" xmlns="http://www.w3.org/2000/svg">
    <path fill-rule="evenodd" clip-rule="evenodd" d="M4.37252 4.37216C5.38954 3.35514 6.89918 2.97913 8.80033 2.97913H13.2003C15.1015 2.97913 16.6111 3.35514 17.6281 4.37216C18.6451 5.38917 19.0212 6.89882 19.0212 8.79996C19.0212 9.17966 18.7134 9.48746 18.3337 9.48746C17.954 9.48746 17.6462 9.17966 17.6462 8.79996C17.6462 7.03443 17.2888 5.97742 16.6559 5.34443C16.0229 4.71144 14.9658 4.35413 13.2003 4.35413H8.80033C7.0348 4.35413 5.97778 4.71144 5.34479 5.34443C4.71181 5.97742 4.35449 7.03443 4.35449 8.79996V13.2C4.35449 14.9655 4.71181 16.0225 5.34479 16.6555C5.97778 17.2885 7.0348 17.6458 8.80033 17.6458C9.18002 17.6458 9.48783 17.9536 9.48783 18.3333C9.48783 18.713 9.18002 19.0208 8.80033 19.0208C6.89918 19.0208 5.38954 18.6448 4.37252 17.6278C3.35551 16.6107 2.97949 15.1011 2.97949 13.2V8.79996C2.97949 6.89882 3.35551 5.38917 4.37252 4.37216Z" fill="#F1F1F1"/>
    <path fill-rule="evenodd" clip-rule="evenodd" d="M6.67565 6.67528C7.38329 5.96764 8.41168 5.72913 9.62533 5.72913H12.3753C13.7138 5.72913 14.8277 6.01669 15.5284 6.90854C15.763 7.2071 15.7111 7.6393 15.4126 7.87389C15.114 8.10847 14.6818 8.05661 14.4472 7.75804C14.1396 7.36656 13.5669 7.10413 12.3753 7.10413H9.62533C8.5473 7.10413 7.97153 7.32394 7.64792 7.64755C7.32431 7.97117 7.10449 8.54693 7.10449 9.62496V12.375C7.10449 13.5667 7.36708 14.1422 7.75302 14.4499C8.04993 14.6865 8.09877 15.1191 7.8621 15.416C7.62543 15.7129 7.19288 15.7617 6.89596 15.5251C6.0169 14.8244 5.72949 13.7132 5.72949 12.375V9.62496C5.72949 8.41132 5.96801 7.38292 6.67565 6.67528Z" fill="#F1F1F1"/>
    <path fill-rule="evenodd" clip-rule="evenodd" d="M7.34277 1.14581C7.72247 1.14581 8.03027 1.45362 8.03027 1.83331V3.66665C8.03027 4.04634 7.72247 4.35415 7.34277 4.35415C6.96308 4.35415 6.65527 4.04634 6.65527 3.66665V1.83331C6.65527 1.45362 6.96308 1.14581 7.34277 1.14581Z" fill="#F1F1F1"/>
    <path fill-rule="evenodd" clip-rule="evenodd" d="M11 1.14581C11.3797 1.14581 11.6875 1.45362 11.6875 1.83331V3.66665C11.6875 4.04634 11.3797 4.35415 11 4.35415C10.6203 4.35415 10.3125 4.04634 10.3125 3.66665V1.83331C10.3125 1.45362 10.6203 1.14581 11 1.14581Z" fill="#F1F1F1"/>
    <path fill-rule="evenodd" clip-rule="evenodd" d="M14.667 1.14581C15.0467 1.14581 15.3545 1.45362 15.3545 1.83331V3.66665C15.3545 4.04634 15.0467 4.35415 14.667 4.35415C14.2873 4.35415 13.9795 4.04634 13.9795 3.66665V1.83331C13.9795 1.45362 14.2873 1.14581 14.667 1.14581Z" fill="#F1F1F1"/>
    <path fill-rule="evenodd" clip-rule="evenodd" d="M17.646 7.33331C17.646 6.95362 17.9538 6.64581 18.3335 6.64581H20.1668C20.5465 6.64581 20.8543 6.95362 20.8543 7.33331C20.8543 7.71301 20.5465 8.02081 20.1668 8.02081H18.3335C17.9538 8.02081 17.646 7.71301 17.646 7.33331Z" fill="#F1F1F1"/>
    <path fill-rule="evenodd" clip-rule="evenodd" d="M7.34277 17.6458C7.72247 17.6458 8.03027 17.9536 8.03027 18.3333V20.1666C8.03027 20.5463 7.72247 20.8541 7.34277 20.8541C6.96308 20.8541 6.65527 20.5463 6.65527 20.1666V18.3333C6.65527 17.9536 6.96308 17.6458 7.34277 17.6458Z" fill="#F1F1F1"/>
    <path fill-rule="evenodd" clip-rule="evenodd" d="M1.146 7.33331C1.146 6.95362 1.4538 6.64581 1.8335 6.64581H3.66683C4.04653 6.64581 4.35433 6.95362 4.35433 7.33331C4.35433 7.71301 4.04653 8.02081 3.66683 8.02081H1.8335C1.4538 8.02081 1.146 7.71301 1.146 7.33331Z" fill="#F1F1F1"/>
    <path fill-rule="evenodd" clip-rule="evenodd" d="M1.146 11C1.146 10.6203 1.4538 10.3125 1.8335 10.3125H3.66683C4.04653 10.3125 4.35433 10.6203 4.35433 11C4.35433 11.3797 4.04653 11.6875 3.66683 11.6875H1.8335C1.4538 11.6875 1.146 11.3797 1.146 11Z" fill="#F1F1F1"/>
    <path fill-rule="evenodd" clip-rule="evenodd" d="M1.146 14.6666C1.146 14.2869 1.4538 13.9791 1.8335 13.9791H3.66683C4.04653 13.9791 4.35433 14.2869 4.35433 14.6666C4.35433 15.0463 4.04653 15.3541 3.66683 15.3541H1.8335C1.4538 15.3541 1.146 15.0463 1.146 14.6666Z" fill="#F1F1F1"/>
    <path fill-rule="evenodd" clip-rule="evenodd" d="M15.3179 14.8133C14.8926 14.8133 14.5479 15.158 14.5479 15.5833C14.5479 16.0086 14.8926 16.3533 15.3179 16.3533C15.7431 16.3533 16.0879 16.0086 16.0879 15.5833C16.0879 15.158 15.7431 14.8133 15.3179 14.8133ZM13.1729 15.5833C13.1729 14.3986 14.1332 13.4383 15.3179 13.4383C16.5025 13.4383 17.4629 14.3986 17.4629 15.5833C17.4629 16.7679 16.5025 17.7283 15.3179 17.7283C14.1332 17.7283 13.1729 16.7679 13.1729 15.5833Z" fill="#F1F1F1"/>
    <path fill-rule="evenodd" clip-rule="evenodd" d="M13.8654 11.755C13.8211 11.6807 13.742 11.675 13.6986 11.7008L13.693 11.7041L12.8499 12.1951C12.7447 12.2543 12.7041 12.3967 12.7675 12.5053L12.7688 12.5075C13.0622 13.0148 13.1749 13.6346 12.8658 14.1719C12.5563 14.7098 11.9633 14.9233 11.3761 14.9233C11.2517 14.9233 11.147 15.028 11.147 15.1525V16.005C11.147 16.1457 11.2558 16.2362 11.3636 16.2343L11.3761 16.2341C11.9633 16.2341 12.5563 16.4477 12.8658 16.9856C13.1749 17.5229 13.0622 18.1427 12.7688 18.65L12.7675 18.6522C12.708 18.7542 12.7371 18.8964 12.8589 18.9676C12.8588 18.9676 12.859 18.9677 12.8589 18.9676L13.6895 19.4514C13.7491 19.4845 13.8285 19.4645 13.8654 19.4025L13.8666 19.4005L13.919 19.3131C14.2122 18.8091 14.6909 18.4044 15.3086 18.4044C15.9264 18.4044 16.4051 18.8091 16.6983 19.3132L16.7519 19.4025C16.7961 19.4768 16.8753 19.4825 16.9187 19.4567L16.9243 19.4534L17.7674 18.9624C17.8726 18.9032 17.9131 18.7608 17.8498 18.6522L17.8485 18.65C17.5551 18.1427 17.4423 17.5229 17.7515 16.9856C18.0609 16.4477 18.654 16.2342 19.2411 16.2342C19.3656 16.2342 19.4703 16.1295 19.4703 16.005V15.1525C19.4703 15.028 19.3656 14.9233 19.2411 14.9233C18.654 14.9233 18.0609 14.7098 17.7515 14.1719C17.4423 13.6346 17.5551 13.0148 17.8485 12.5075L17.8498 12.5053C17.9093 12.4032 17.8802 12.261 17.7582 12.1898C17.7582 12.1897 17.7583 12.1898 17.7582 12.1898L16.9278 11.7061C16.8681 11.673 16.7888 11.693 16.7519 11.755L16.7507 11.7571L16.6983 11.8444C16.4051 12.3484 15.9264 12.7531 15.3086 12.7531C14.6909 12.7531 14.2122 12.3484 13.919 11.8444L13.8654 11.755ZM15.0462 11.0505C14.6324 10.3567 13.7243 10.0878 12.9986 10.5173L12.1706 10.9995C11.4002 11.4366 11.1311 12.4272 11.579 13.1967C11.6788 13.3696 11.677 13.4579 11.6724 13.4852C11.6509 13.5029 11.5754 13.5483 11.3761 13.5483C10.4923 13.5483 9.77197 14.2686 9.77197 15.1525V16.005C9.77197 16.8884 10.484 17.6212 11.3809 17.6092C11.5766 17.6099 11.6511 17.6547 11.6724 17.6723C11.677 17.6996 11.6788 17.7879 11.579 17.9608C11.1263 18.7385 11.4089 19.7136 12.1664 20.1555L13.001 20.6416L13.0059 20.6444C13.7157 21.05 14.6247 20.8136 15.0462 20.107C15.0464 20.1066 15.0467 20.1062 15.0469 20.1058L15.1007 20.0162L15.1063 20.0067C15.2055 19.8351 15.2822 19.7916 15.3086 19.7814C15.3351 19.7916 15.4118 19.8351 15.511 20.0067L15.5704 20.1058C15.5706 20.1062 15.5708 20.1066 15.5711 20.107C15.9849 20.8008 16.893 21.0697 17.6187 20.6402L18.4466 20.158C19.2171 19.7209 19.4862 18.7303 19.0383 17.9608C18.9385 17.788 18.9403 17.6996 18.9449 17.6723C18.9663 17.6546 19.0419 17.6092 19.2411 17.6092C20.125 17.6092 20.8453 16.8889 20.8453 16.005V15.1525C20.8453 14.2686 20.125 13.5483 19.2411 13.5483C19.0419 13.5483 18.9663 13.5029 18.9449 13.4852C18.9403 13.4579 18.9385 13.3695 19.0383 13.1966C19.4909 12.419 19.2083 11.4438 18.4509 11.002L17.6163 10.5159L17.6114 10.5131C16.9016 10.1075 15.9925 10.3439 15.5711 11.0505C15.5708 11.0509 15.5706 11.0513 15.5704 11.0517L15.5166 11.1413L15.511 11.1508C15.4118 11.3224 15.3351 11.3659 15.3086 11.3761C15.2822 11.3659 15.2055 11.3224 15.1063 11.1508L15.0469 11.0517C15.0467 11.0513 15.0464 11.0509 15.0462 11.0505Z" fill="#F1F1F1"/>
</svg>
