<?xml version="1.0" encoding="UTF-8"?>
<svg version="1.1" xmlns="http://www.w3.org/2000/svg" width="256" height="256">
<path d="M0 0 C4.87534592 3.29888676 7.72708476 6.48768064 10 12 C10.87949188 18.31768333 11.20385811 24.92491772 7.875 30.5625 C4.14136561 35.48794424 -0.08324155 39.00735461 -6 41 C-13.0550489 41.90692706 -19.21919169 41.3387686 -25 37 C-28.35554954 33.77897138 -31.26250289 30.35186191 -33 26 C-33.03309172 24.33366188 -33.03674567 22.66626154 -33 21 C-38.2512212 21.11794106 -43.50224097 21.24216602 -48.75317383 21.37231445 C-50.5408927 21.415727 -52.32865474 21.45739729 -54.11645508 21.49731445 C-56.68063391 21.5548646 -59.24459412 21.61860203 -61.80859375 21.68359375 C-62.6127623 21.70030624 -63.41693085 21.71701874 -64.24546814 21.73423767 C-67.92669998 21.49220696 -67.92669998 21.49220696 -71 23 C-71.12533087 25.98223174 -71.18611578 28.94241634 -71.20532227 31.92602539 C-71.22017166 33.33075859 -71.22017166 33.33075859 -71.23532104 34.76387024 C-71.26703753 37.87510608 -71.29173341 40.98635722 -71.31640625 44.09765625 C-71.33696703 46.24857492 -71.35796325 48.39948946 -71.37937927 50.55039978 C-71.4346905 56.22377189 -71.48405972 61.89718101 -71.53222656 67.57061768 C-71.58237567 73.35505484 -71.63809606 79.13943796 -71.69335938 84.92382812 C-71.80105158 96.28250598 -71.90247182 107.64123065 -72 119 C-51.87673389 118.98619714 -31.7537189 118.94398532 -11.63058949 118.86790943 C-2.28714701 118.83324945 7.05614778 118.80790259 16.3996582 118.80444336 C24.54304347 118.80140486 32.68616579 118.78092989 40.82944947 118.73947543 C45.14173376 118.7181332 49.45364409 118.70555099 53.76598167 118.71384621 C57.82503278 118.72137877 61.88332572 118.70559684 65.94223785 118.67193985 C67.43173043 118.66369685 68.92129826 118.66396819 70.41078377 118.67340279 C72.44529726 118.68501369 74.47991968 118.66295832 76.514328 118.63923645 C78.22194951 118.63508838 78.22194951 118.63508838 79.96406841 118.63085651 C83.92910707 117.80693463 85.39403829 116.0153826 88 113 C93.23101118 108.62764292 98.0127853 106 105 106 C104.97643433 104.48647949 104.97643433 104.48647949 104.95239258 102.94238281 C104.8980232 99.19278979 104.86362468 95.4432315 104.83520508 91.69335938 C104.82013435 90.07155494 104.79967407 88.44979116 104.77368164 86.828125 C104.73722171 84.49468954 104.72025686 82.16179369 104.70703125 79.828125 C104.69154739 79.10506165 104.67606354 78.38199829 104.66011047 77.63702393 C104.65872036 73.4628548 105.03146649 71.02674004 108 68 C112.875 68.875 112.875 68.875 114 70 C114.08855161 72.6662603 114.11524673 75.30647114 114.09765625 77.97265625 C114.09553383 79.16912025 114.09553383 79.16912025 114.09336853 80.38975525 C114.08775316 82.94737435 114.07519812 85.50490718 114.0625 88.0625 C114.05748698 89.79231645 114.05292373 91.52213426 114.04882812 93.25195312 C114.03777875 97.50133553 114.02050386 101.75065312 114 106 C116.01123556 106.23905436 118.02247111 106.47810872 120.03370667 106.71716309 C128.07465318 107.87379443 134.08139367 113.93888275 139 120 C144.20209996 128.94646861 145.61579372 138.87204141 143.31640625 149.015625 C139.95348779 159.00670224 134.50591403 166.21724388 125 171 C113.58524863 175.30898734 104.20584552 174.70318334 93 170 C89.70902167 167.96467042 86.67598919 165.8073685 84 163 C84 162.34 84 161.68 84 161 C66.84 161 49.68 161 32 161 C32 168.26 32 175.52 32 183 C34.083125 182.938125 36.16625 182.87625 38.3125 182.8125 C44.46862097 182.62964492 44.46862097 182.62964492 46.93359375 184.34765625 C48 186 48 186 47.75 188.625 C47 191 47 191 46 192 C44.16427369 192.09905152 42.32472425 192.12799207 40.48632812 192.12939453 C39.30840698 192.13254669 38.13048584 192.13569885 36.91687012 192.13894653 C35.63461548 192.1369223 34.35236084 192.13489807 33.03125 192.1328125 C31.72546997 192.13376923 30.41968994 192.13472595 29.07434082 192.13571167 C26.30687278 192.13718833 23.53943696 192.13503511 20.77197266 192.13037109 C17.21737351 192.12467381 13.66284986 192.12795298 10.10825348 192.13394356 C6.72841286 192.13841747 3.34859277 192.13528886 -0.03125 192.1328125 C-1.31350464 192.13483673 -2.59575928 192.13686096 -3.91687012 192.13894653 C-5.68375183 192.13421829 -5.68375183 192.13421829 -7.48632812 192.12939453 C-8.52921997 192.12859894 -9.57211182 192.12780334 -10.64660645 192.12698364 C-13 192 -13 192 -14 191 C-14.1875 188.0625 -14.1875 188.0625 -14 185 C-12 183 -12 183 -8.9609375 182.8046875 C-3.98046875 182.90234375 -3.98046875 182.90234375 1 183 C1 175.74 1 168.48 1 161 C-2.26994873 161.0314209 -2.26994873 161.0314209 -5.60595703 161.06347656 C-12.81828565 161.12983273 -20.03062794 161.17396972 -27.24318123 161.20724869 C-31.61508491 161.22810038 -35.98667514 161.25637342 -40.35839844 161.30175781 C-44.57944687 161.34530247 -48.80019429 161.3691553 -53.02145004 161.37950897 C-54.62978731 161.38688494 -56.23810859 161.40128867 -57.84631729 161.42292023 C-60.10379547 161.45207012 -62.36003889 161.45595137 -64.61767578 161.45410156 C-65.90118927 161.46298401 -67.18470276 161.47186646 -68.5071106 161.48101807 C-72.70218881 160.90329911 -74.76825381 159.70777995 -78 157 C-80.60910228 153.36488056 -81.37571871 150.87267083 -81.38095093 146.42114258 C-81.3894104 145.31082672 -81.39786987 144.20051086 -81.40658569 143.05654907 C-81.400513 141.84808319 -81.39444031 140.63961731 -81.38818359 139.39453125 C-81.39344055 138.11436127 -81.39869751 136.83419128 -81.40411377 135.51522827 C-81.41776952 132.01108117 -81.41249608 128.50719958 -81.40297651 125.00304794 C-81.39537083 121.33250981 -81.40242805 117.66199412 -81.40713501 113.99145508 C-81.41258992 107.82792081 -81.40540793 101.66449444 -81.39111328 95.50097656 C-81.3747872 88.37940097 -81.3800759 81.25808306 -81.3965925 74.13651371 C-81.41021494 68.01746703 -81.41212334 61.89849783 -81.40427649 55.77944088 C-81.39960412 52.1268129 -81.39896306 48.47430595 -81.40888596 44.82168579 C-81.41917642 40.74945869 -81.40490592 36.67767447 -81.38818359 32.60546875 C-81.39425629 31.39700287 -81.40032898 30.18853699 -81.40658569 28.94345093 C-81.39812622 27.83313507 -81.38966675 26.72281921 -81.38095093 25.57885742 C-81.37925431 24.13539192 -81.37925431 24.13539192 -81.37752342 22.6627655 C-80.79298227 18.53985307 -79.03678258 15.88730816 -75.90356445 13.20581055 C-71.74934127 11.48061856 -67.99608729 11.62786939 -63.54296875 11.70703125 C-62.64000565 11.71127609 -61.73704254 11.71552094 -60.80671692 11.71989441 C-57.9333365 11.73663689 -55.06066709 11.77428084 -52.1875 11.8125 C-50.2350362 11.82755257 -48.28256136 11.84123997 -46.33007812 11.85351562 C-41.55311303 11.88652592 -36.77667691 11.93827765 -32 12 C-31.69980957 11.04697998 -31.39961914 10.09395996 -31.09033203 9.11206055 C-29.3127788 4.03851127 -25.69270924 1.40971249 -21.0078125 -1.04296875 C-13.67225467 -4.08280108 -6.99607902 -3.66984892 0 0 Z M-20 9 C-22.89225225 12.18889351 -24.24777252 14.7446783 -24.5 19 C-24.25687833 23.23842116 -22.83203009 25.79533437 -20 29 C-16.58015724 31.40943467 -14.04864944 32.24719111 -9.9375 31.9375 C-5.31524149 31.12440672 -2.49897132 28.99862843 0.3125 25.25 C1.85772105 20.19291292 1.64739125 16.37246945 -0.5625 11.6875 C-3.61112458 8.32619598 -5.71270411 7.40311502 -10 6 C-13.82677925 6 -16.76122935 7.04937677 -20 9 Z M92 122 C87.12103751 127.14269019 84.85578028 132.30560499 84.5 139.3125 C84.76344142 147.31453309 87.99779789 153.44989919 93.75 158.9375 C99.37623791 163.39423902 104.86971174 165.3670846 112.0625 164.9375 C120.17456576 163.73199178 125.38972886 160.43079847 130.5234375 154.06640625 C134.88240396 147.96615954 135.93949492 142.30839654 135 135 C133.15103518 126.85222834 128.82749468 121.69750055 122 117 C110.83004391 111.86832033 100.90559801 113.86352182 92 122 Z M-72 128 C-72 135.26 -72 142.52 -72 150 C-70.16644456 152.25763954 -70.16644456 152.25763954 -67.44253349 152.24609566 C-65.80819453 152.24333028 -65.80819453 152.24333028 -64.14083862 152.24050903 C-62.26877243 152.24463303 -62.26877243 152.24463303 -60.35888672 152.24884033 C-58.96826077 152.24176158 -57.57763578 152.23449195 -56.18701172 152.22705078 C-54.72860726 152.22648688 -53.27020223 152.22680281 -51.8117981 152.22793579 C-47.84505147 152.22851115 -43.87842506 152.21672734 -39.91170645 152.20278788 C-35.76903481 152.19031093 -31.62636062 152.18911242 -27.4836731 152.18673706 C-19.63553468 152.18051334 -11.78745178 152.1640905 -3.93933785 152.14403808 C4.99402532 152.12170678 13.92739111 152.11069263 22.86077523 152.10064721 C41.24054833 152.07972502 59.62026971 152.04453177 78 152 C77.83773926 151.24984619 77.67547852 150.49969238 77.50830078 149.72680664 C76.86273282 146.26362288 76.86800646 142.9587496 76.875 139.4375 C76.87242187 138.13683594 76.86984375 136.83617187 76.8671875 135.49609375 C77 132 77 132 78 128 C28.5 128 -21 128 -72 128 Z M11 161 C11 168.26 11 175.52 11 183 C14.96 183 18.92 183 23 183 C23 175.74 23 168.48 23 161 C19.04 161 15.08 161 11 161 Z " fill="#FFFFFF" transform="translate(81,15)"/>
<path d="M0 0 C2.875 -0.125 2.875 -0.125 6 0 C6.99 0.99 6.99 0.99 8 2 C7.62279813 8.44523193 5.30250215 14.17618331 2.99609375 20.15234375 C1.51006071 24.2975938 0.8329347 27.30584844 1.5078125 31.6953125 C2.17294903 36.07571164 1.57128398 38.2497874 -1 42 C-3.08485861 44.5095786 -5.31393375 46.82383125 -7.625 49.125 C-8.20378906 49.73214844 -8.78257813 50.33929688 -9.37890625 50.96484375 C-14.776015 56.38557223 -20.24943046 59.62828845 -27.94140625 60.390625 C-29.13636719 60.34421875 -30.33132812 60.2978125 -31.5625 60.25 C-32.78066406 60.21390625 -33.99882813 60.1778125 -35.25390625 60.140625 C-36.16011719 60.09421875 -37.06632812 60.0478125 -38 60 C-37.9685791 61.04341553 -37.9685791 61.04341553 -37.93652344 62.10791016 C-37.8530302 65.28012458 -37.80123471 68.45210731 -37.75 71.625 C-37.71648437 72.71941406 -37.68296875 73.81382813 -37.6484375 74.94140625 C-37.57186061 81.25899979 -37.62861333 85.25623595 -42 90 C-44.49283774 91.24641887 -46.22340813 91.15396235 -49.01293945 91.19287109 C-50.58015495 91.21696548 -50.58015495 91.21696548 -52.17903137 91.24154663 C-56.95943606 91.28593806 -61.73970116 91.3270588 -66.52026367 91.35009766 C-69.04314392 91.36666456 -71.56597709 91.39396384 -74.08862305 91.43212891 C-77.7220907 91.48683189 -81.35445753 91.50876249 -84.98828125 91.5234375 C-86.11551102 91.54610687 -87.24274078 91.56877625 -88.40412903 91.59213257 C-96.15603135 91.57117658 -96.15603135 91.57117658 -100.18823242 88.84228516 C-103.52703592 83.60439939 -103.13856425 79.31051741 -102.109375 73.3515625 C-101.89410156 72.09859375 -101.67882812 70.845625 -101.45703125 69.5546875 C-101.22371094 68.25789063 -100.99039063 66.96109375 -100.75 65.625 C-100.53214844 64.3359375 -100.31429687 63.046875 -100.08984375 61.71875 C-96.6850942 42.32561515 -96.6850942 42.32561515 -88.125 35.8125 C-81.42287937 31.92527003 -75.75104574 31.76421289 -68.1953125 31.8671875 C-66.06380065 31.86638093 -63.93228883 31.86371925 -61.80078125 31.859375 C-58.46041822 31.86133905 -55.12180554 31.87504386 -51.78173828 31.92089844 C-48.54354788 31.96007973 -45.3086165 31.94878708 -42.0703125 31.9296875 C-41.0804837 31.95537811 -40.09065491 31.98106873 -39.0708313 32.00753784 C-33.43564657 31.9299222 -30.5797238 31.17630597 -26.55810547 27.10205078 C-25.96190399 26.39766876 -25.36570251 25.69328674 -24.75143433 24.96755981 C-22.03459661 21.91546666 -18.94299776 20.05399363 -15 19 C-12.1446846 18.98533228 -9.81833222 19.39607167 -7 20 C-6.82984375 19.39414062 -6.6596875 18.78828125 -6.484375 18.1640625 C-4.68433058 11.94050468 -2.50381567 5.97357039 0 0 Z M-14.9296875 29.2578125 C-15.89261719 30.18207031 -15.89261719 30.18207031 -16.875 31.125 C-18.24730851 32.41952584 -19.62263039 33.71086047 -21 35 C-22.20293701 36.28245605 -22.20293701 36.28245605 -23.43017578 37.59082031 C-27.85660488 41.23520368 -32.82623247 40.67169162 -38.3125 40.6015625 C-39.39958252 40.60956879 -40.48666504 40.61757507 -41.60668945 40.62582397 C-45.07150771 40.648861 -48.5351505 40.63944088 -52 40.625 C-55.46462902 40.62114934 -58.92873966 40.62461572 -62.39331055 40.64559937 C-64.54578568 40.65766347 -66.69840647 40.65506093 -68.85083008 40.63589478 C-75.97020668 40.66241926 -80.40118704 41.54226546 -85.734375 46.5859375 C-88.75505781 50.50799206 -89.43987353 54.83460854 -90.25 59.625 C-90.41274414 60.50639648 -90.57548828 61.38779297 -90.74316406 62.29589844 C-91.91126647 68.84158934 -92.72972282 75.35118147 -93 82 C-90.36 82 -87.72 82 -85 82 C-83.42238317 76.0535981 -82.18851093 70.06200319 -81.0534668 64.01733398 C-80.1074588 59.1074588 -80.1074588 59.1074588 -79 58 C-76.5 57.875 -76.5 57.875 -74 58 C-73.67 58.33 -73.34 58.66 -73 59 C-73.06635747 60.60766053 -73.20560586 62.21241209 -73.375 63.8125 C-74.00167015 69.87329559 -74.49333527 75.92002325 -75 82 C-65.76 82 -56.52 82 -47 82 C-46.93941406 79.91816406 -46.87882812 77.83632812 -46.81640625 75.69140625 C-46.75384593 73.68252498 -46.69125225 71.67364459 -46.62768555 69.66479492 C-46.58428566 68.26510801 -46.54261436 66.86536641 -46.50268555 65.46557617 C-46.44510555 63.45738505 -46.38086 61.44938851 -46.31640625 59.44140625 C-46.27974854 58.23170166 -46.24309082 57.02199707 -46.20532227 55.77563477 C-46 53 -46 53 -45 52 C-43.66716636 51.89175617 -42.32925877 51.84428492 -40.9921875 51.82421875 C-39.75855469 51.78844727 -39.75855469 51.78844727 -38.5 51.75195312 C-36.77367502 51.70956568 -35.04704424 51.67800509 -33.3203125 51.65820312 C-24.40510075 51.36056795 -19.21709374 47.74230651 -13.125 41.4375 C-12.6403125 40.95603516 -12.155625 40.47457031 -11.65625 39.97851562 C-9.37710077 37.66435154 -8.04128752 36.12386257 -7 33 C-7.59145334 30.81701858 -7.59145334 30.81701858 -9 29 C-11.61819759 27.84376837 -12.48854628 27.66662329 -14.9296875 29.2578125 Z " fill="#FFFFFF" transform="translate(131,30)"/>
<path d="M0 0 C8.47638013 7.01765425 16.39589647 15.62518942 19.9375 26.25 C20.33058695 31.04566077 20.42020142 33.31907584 18.1875 37.625 C15.55474679 40.69654541 13.70633156 42.04990287 9.66327763 42.50726891 C8.82540935 42.51062059 7.98754107 42.51397228 7.12428284 42.51742554 C5.67543198 42.53022049 5.67543198 42.53022049 4.1973114 42.54327393 C3.1442128 42.54236755 2.0911142 42.54146118 1.00610352 42.54052734 C-0.10810974 42.54724457 -1.222323 42.55396179 -2.37030029 42.56088257 C-6.05810998 42.57990015 -9.74573807 42.58378853 -13.43359375 42.5859375 C-15.99422786 42.5923622 -18.55486123 42.59909032 -21.11549377 42.60610962 C-26.48464965 42.61809139 -31.8537377 42.62187504 -37.22290039 42.62060547 C-43.42486013 42.61940368 -49.62647208 42.64051462 -55.82834381 42.6720928 C-61.79988474 42.7014124 -67.77131955 42.7085812 -73.74293709 42.70738602 C-76.28149906 42.70974882 -78.82006352 42.71861034 -81.35857964 42.73405075 C-84.90658449 42.75361241 -88.45369013 42.74791077 -92.00170898 42.73583984 C-93.05278336 42.74707886 -94.10385773 42.75831787 -95.18678284 42.76989746 C-102.31430047 42.7081742 -102.31430047 42.7081742 -106.17396545 40.34463501 C-109.71276937 36.41963263 -110.70851305 33.0848041 -110.5546875 27.86328125 C-108.30183146 15.90168849 -96.53162859 4.23641888 -87 -2.6875 C-59.71057774 -20.43426036 -26.10012881 -20.08315255 0 0 Z M-84.0625 7.25 C-84.67867187 7.68828125 -85.29484375 8.1265625 -85.9296875 8.578125 C-90.02048928 11.7074941 -92.96953622 15.57477866 -95.9375 19.75 C-96.33138916 20.2960791 -96.72527832 20.8421582 -97.13110352 21.40478516 C-99.56963532 24.97443994 -100.77021661 27.92928898 -101.0625 32.25 C-99.50063844 33.81186156 -97.98968457 33.37916438 -95.81764221 33.38371277 C-94.90201508 33.38797775 -93.98638794 33.39224274 -93.04301453 33.39663696 C-91.52427483 33.39595718 -91.52427483 33.39595718 -89.97485352 33.39526367 C-88.91478088 33.39862228 -87.85470825 33.4019809 -86.76251221 33.40544128 C-83.23879848 33.41498362 -79.71513211 33.41689602 -76.19140625 33.41796875 C-73.75381958 33.42117898 -71.31623311 33.42454287 -68.87864685 33.42805481 C-63.76145989 33.43405426 -58.64428984 33.43589387 -53.52709961 33.43530273 C-46.95484067 33.43520105 -40.38268962 33.44885616 -33.81045628 33.46607494 C-28.77401731 33.47716763 -23.73760465 33.47922279 -18.70115471 33.47869301 C-16.2773495 33.47987715 -13.8535437 33.484323 -11.42975044 33.49202538 C-8.04626939 33.50177054 -4.6630255 33.49896896 -1.27954102 33.49291992 C0.23616234 33.50134918 0.23616234 33.50134918 1.78248596 33.50994873 C2.70093292 33.50575424 3.61937988 33.50155975 4.56565857 33.49723816 C5.76665019 33.49805531 5.76665019 33.49805531 6.99190426 33.49888897 C9.17393487 33.42134253 9.17393487 33.42134253 10.9375 31.25 C10.06392545 20.80204842 -0.72065932 11.72389011 -8.0625 5.25 C-17.12094877 -1.73163369 -29.63354312 -6.15884706 -41.0625 -6.75 C-41.71734375 -6.80027344 -42.3721875 -6.85054687 -43.046875 -6.90234375 C-58.25322888 -7.59606427 -72.23342121 -1.81227731 -84.0625 7.25 Z " fill="#FFFFFF" transform="translate(236.0625,213.75)"/>
<path d="M0 0 C0.84672775 -0.00852997 1.69345551 -0.01705994 2.56584167 -0.02584839 C3.95451698 -0.02448883 3.95451698 -0.02448883 5.37124634 -0.02310181 C6.34876358 -0.02981903 7.32628082 -0.03653625 8.3334198 -0.04345703 C11.57215425 -0.06249003 14.81068206 -0.06636393 18.04946899 -0.06851196 C20.29764899 -0.07493628 22.54582813 -0.08166436 24.79400635 -0.08868408 C29.51003966 -0.10067018 34.22599965 -0.10436354 38.94204712 -0.10317993 C44.98723076 -0.10297669 51.03194457 -0.13027892 57.07701683 -0.16472435 C61.72155927 -0.18695446 66.36598796 -0.19101866 71.01057816 -0.18996048 C73.2393315 -0.1923223 75.46808772 -0.20117834 77.69678879 -0.21662521 C80.8138703 -0.23620573 83.92992986 -0.23047791 87.04702759 -0.21841431 C87.96876266 -0.22965332 88.89049774 -0.24089233 89.84016418 -0.25247192 C93.93489275 -0.21217172 96.24780826 -0.08467151 99.82550049 2.04779053 C103.48622991 6.08423267 104.0898652 8.79343421 104.12905884 14.22592163 C104.14181854 15.42751923 104.15457825 16.62911682 104.16772461 17.86712646 C104.16995026 19.16195953 104.1721759 20.4567926 104.17446899 21.79086304 C104.1808999 23.13840882 104.18762848 24.48595321 104.19464111 25.83349609 C104.20660414 28.65623205 104.21032298 31.47884571 104.20913696 34.30160522 C104.20893387 37.9086116 104.23622877 41.5148292 104.27068138 45.12164879 C104.29298223 47.90474 104.29697355 50.68764236 104.29591751 53.47081375 C104.29940799 55.44387906 104.32105166 57.41688542 104.34301758 59.38983154 C104.2921118 69.38277668 104.2921118 69.38277668 102.2472229 72.94174194 C95.41621584 79.53734029 87.75142695 78.70774899 78.73306274 78.66586304 C77.36259303 78.6678868 75.99212437 78.67080075 74.62165833 78.67456055 C71.7613084 78.67896527 68.90124098 78.67261018 66.04092407 78.65853882 C62.37897579 78.64139878 58.71768491 78.65132952 55.05576038 78.66925621 C52.23070835 78.680103 49.40581198 78.67664454 46.58075523 78.66887283 C44.57551519 78.66590733 42.57026903 78.67499491 40.56504822 78.68426514 C39.34665756 78.67480865 38.12826691 78.66535217 36.87295532 78.65560913 C35.80152786 78.65322235 34.7301004 78.65083557 33.62620544 78.64837646 C30.51242682 78.22286155 29.13656264 77.35714191 26.83853149 75.26742554 C27.71353149 70.39242554 27.71353149 70.39242554 28.83853149 69.26742554 C30.79096248 69.14904652 32.74762965 69.10002911 34.70352173 69.07797241 C35.95829819 69.06125488 37.21307465 69.04453735 38.50587463 69.02731323 C39.18059248 69.02063126 39.85531033 69.01394928 40.55047417 69.00706482 C42.65569571 68.98609015 44.76076068 68.95906287 46.8658905 68.9303894 C51.33587773 68.87060236 55.80593734 68.81849934 60.27603149 68.76742554 C65.45084291 68.7082492 70.62557744 68.64596633 75.8002491 68.57554626 C77.87755512 68.54892632 79.95486862 68.52813754 82.03224182 68.50753784 C83.91913475 68.48246155 83.91913475 68.48246155 85.84414673 68.45687866 C86.95587753 68.44435059 88.06760834 68.43182251 89.21302795 68.41891479 C91.81855276 68.44197701 91.81855276 68.44197701 93.83853149 67.26742554 C93.83853149 48.12742554 93.83853149 28.98742554 93.83853149 9.26742554 C62.48853149 9.26742554 31.13853149 9.26742554 -1.16146851 9.26742554 C-1.49146851 22.13742554 -1.82146851 35.00742554 -2.16146851 48.26742554 C-5.16146851 50.26742554 -5.16146851 50.26742554 -7.78646851 49.95492554 C-10.16146851 49.26742554 -10.16146851 49.26742554 -11.16146851 48.26742554 C-11.29994006 45.38053232 -11.37467462 42.5193387 -11.39974976 39.63070679 C-11.4078215 38.75850998 -11.41589325 37.88631317 -11.42420959 36.98768616 C-11.43807057 35.13572183 -11.44878367 33.28373174 -11.45663452 31.43173218 C-11.47379248 28.60888504 -11.51765284 25.78722565 -11.56185913 22.96469116 C-11.57199059 21.16587166 -11.58050527 19.36704218 -11.58724976 17.56820679 C-11.60475784 16.72736038 -11.62226593 15.88651398 -11.64030457 15.02018738 C-11.62049575 9.62274428 -10.7821429 6.52952096 -7.16146851 2.26742554 C-4.0906539 0.2202158 -3.46249951 0.01577762 0 0 Z " fill="#FFFFFF" transform="translate(109.16146850585938,-0.267425537109375)"/>
<path d="M0 0 C1.21720482 0.00607269 1.21720482 0.00607269 2.45899963 0.01226807 C3.29250443 0.01035461 4.12600922 0.00844116 4.98477173 0.00646973 C6.7492147 0.00510756 8.51366767 0.00880617 10.27809143 0.01715088 C12.97989951 0.02783668 15.68104063 0.01726375 18.38282776 0.00445557 C20.09571985 0.00577742 21.80861153 0.00834035 23.52149963 0.01226807 C24.73566811 0.00619537 24.73566811 0.00619537 25.97436523 0 C29.85278165 0.03242351 31.75571016 0.07726259 35.05665588 2.27789307 C35.30665588 5.34039307 35.30665588 5.34039307 35.05665588 8.27789307 C32.91258535 10.4219636 28.03430679 9.46674406 25.06056213 9.48101807 C24.15668259 9.48671814 23.25280304 9.49241821 22.3215332 9.49829102 C20.40569739 9.50775535 18.48984519 9.51428066 16.57398987 9.51812744 C13.6349822 9.52784076 10.69667132 9.55885354 7.75782776 9.59039307 C5.90041006 9.59692195 4.04298733 9.60217287 2.18556213 9.60601807 C0.86051414 9.62453827 0.86051414 9.62453827 -0.49130249 9.64343262 C-2.9684906 9.63433838 -2.9684906 9.63433838 -6.94334412 9.27789307 C-8.94334412 6.27789307 -8.94334412 6.27789307 -8.69334412 4.21539307 C-6.95360799 -0.27892525 -4.38777785 0.03683574 0 0 Z " fill="#FFFFFF" transform="translate(150.94334411621094,17.72210693359375)"/>
<path d="M0 0 C0.70523804 0.00404846 1.41047607 0.00809692 2.13708496 0.01226807 C2.8619812 0.01035461 3.58687744 0.00844116 4.33374023 0.00646973 C5.86698758 0.0051082 7.40024646 0.00880243 8.93347168 0.01715088 C11.28415755 0.02785129 13.63407919 0.01725498 15.98474121 0.00445557 C17.47302415 0.00577717 18.96130662 0.00833957 20.44958496 0.01226807 C21.154823 0.0082196 21.86006104 0.00417114 22.58666992 0 C27.56341011 0.04796821 27.56341011 0.04796821 29.79333496 2.27789307 C30.04333496 4.77789307 30.04333496 4.77789307 29.79333496 7.27789307 C27.33330709 9.73792094 25.94539658 9.52341311 22.58666992 9.55578613 C21.88143188 9.55173767 21.17619385 9.54768921 20.44958496 9.54351807 C19.72468872 9.54543152 18.99979248 9.54734497 18.25292969 9.54931641 C16.71968234 9.55067794 15.18642346 9.54698371 13.65319824 9.53863525 C11.30251237 9.52793484 8.95259073 9.53853115 6.60192871 9.55133057 C5.11364577 9.55000897 3.6253633 9.54744656 2.13708496 9.54351807 C1.43184692 9.54756653 0.72660889 9.55161499 0 9.55578613 C-4.97674018 9.50781792 -4.97674018 9.50781792 -7.20666504 7.27789307 C-7.45666504 4.77789307 -7.45666504 4.77789307 -7.20666504 2.27789307 C-4.74663717 -0.18213481 -3.35872665 0.03237302 0 0 Z " fill="#FFFFFF" transform="translate(156.2066650390625,33.72210693359375)"/>
<path d="M0 0 C1.11246094 -0.00257812 2.22492188 -0.00515625 3.37109375 -0.0078125 C4.53769531 -0.00007813 5.70429688 0.00765625 6.90625 0.015625 C8.07285156 0.00789063 9.23945313 0.00015625 10.44140625 -0.0078125 C11.55386719 -0.00523438 12.66632813 -0.00265625 13.8125 0 C14.83666016 0.00225586 15.86082031 0.00451172 16.91601562 0.00683594 C19.40625 0.265625 19.40625 0.265625 21.40625 2.265625 C21.65625 4.765625 21.65625 4.765625 21.40625 7.265625 C18.75925384 9.91262116 17.50230591 9.52312267 13.8125 9.53125 C12.70003906 9.53382812 11.58757812 9.53640625 10.44140625 9.5390625 C9.27480469 9.53132813 8.10820312 9.52359375 6.90625 9.515625 C5.73964844 9.52335937 4.57304687 9.53109375 3.37109375 9.5390625 C2.25863281 9.53648438 1.14617187 9.53390625 0 9.53125 C-1.02416016 9.52899414 -2.04832031 9.52673828 -3.10351562 9.52441406 C-5.59375 9.265625 -5.59375 9.265625 -7.59375 7.265625 C-7.84375 4.765625 -7.84375 4.765625 -7.59375 2.265625 C-4.94675384 -0.38137116 -3.68980591 0.00812733 0 0 Z " fill="#FFFFFF" transform="translate(164.59375,49.734375)"/>
<path d="M0 0 C0.78955078 -0.01224609 1.57910156 -0.02449219 2.39257812 -0.03710938 C4.45057435 -0.04237279 6.50812009 0.06543715 8.5625 0.1875 C9.2225 0.8475 9.8825 1.5075 10.5625 2.1875 C10.3125 5.25 10.3125 5.25 9.5625 8.1875 C6.60662889 9.66543555 3.91252355 9.35803651 0.625 9.375 C-0.62152344 9.38917969 -1.86804688 9.40335938 -3.15234375 9.41796875 C-6.4375 9.1875 -6.4375 9.1875 -9.4375 7.1875 C-9.6875 4.125 -9.6875 4.125 -9.4375 1.1875 C-7.33618615 -0.91381385 -2.89603678 0.00235259 0 0 Z " fill="#FFFFFF" transform="translate(97.4375,150.8125)"/>
</svg>
