<svg width="22" height="22" viewBox="0 0 22 22" fill="none" xmlns="http://www.w3.org/2000/svg">
    <path fill-rule="evenodd" clip-rule="evenodd" d="M12.1445 18.334C12.1445 17.7012 11.6315 17.1882 10.9987 17.1882C10.3659 17.1882 9.85286 17.7012 9.85286 18.334C9.85286 18.9668 10.3659 19.4798 10.9987 19.4798C11.6315 19.4798 12.1445 18.9668 12.1445 18.334ZM10.9987 15.8132C12.3909 15.8132 13.5195 16.9418 13.5195 18.334C13.5195 19.7262 12.3909 20.8548 10.9987 20.8548C9.60648 20.8548 8.47786 19.7262 8.47786 18.334C8.47786 16.9418 9.60648 15.8132 10.9987 15.8132Z" fill="#F1F1F1"/>
    <path fill-rule="evenodd" clip-rule="evenodd" d="M19.478 18.334C19.478 17.7012 18.965 17.1882 18.3322 17.1882C17.6994 17.1882 17.1864 17.7012 17.1864 18.334C17.1864 18.9668 17.6994 19.4798 18.3322 19.4798C18.965 19.4798 19.478 18.9668 19.478 18.334ZM18.3322 15.8132C19.7244 15.8132 20.853 16.9418 20.853 18.334C20.853 19.7262 19.7244 20.8548 18.3322 20.8548C16.94 20.8548 15.8114 19.7262 15.8114 18.334C15.8114 16.9418 16.94 15.8132 18.3322 15.8132Z" fill="#F1F1F1"/>
    <path fill-rule="evenodd" clip-rule="evenodd" d="M4.81152 18.334C4.81152 17.7012 4.29852 17.1882 3.66569 17.1882C3.03286 17.1882 2.51986 17.7012 2.51986 18.334C2.51986 18.9668 3.03286 19.4798 3.66569 19.4798C4.29852 19.4798 4.81152 18.9668 4.81152 18.334ZM3.66569 15.8132C5.05791 15.8132 6.18652 16.9418 6.18652 18.334C6.18652 19.7262 5.05791 20.8548 3.66569 20.8548C2.27347 20.8548 1.14486 19.7262 1.14486 18.334C1.14486 16.9418 2.27347 15.8132 3.66569 15.8132Z" fill="#F1F1F1"/>
    <path fill-rule="evenodd" clip-rule="evenodd" d="M12.1445 3.66732C12.1445 3.03449 11.6315 2.52148 10.9987 2.52148C10.3659 2.52148 9.85286 3.03449 9.85286 3.66732C9.85286 4.30014 10.3659 4.81315 10.9987 4.81315C11.6315 4.81315 12.1445 4.30014 12.1445 3.66732ZM10.9987 1.14648C12.3909 1.14648 13.5195 2.2751 13.5195 3.66732C13.5195 5.05954 12.3909 6.18815 10.9987 6.18815C9.60648 6.18815 8.47786 5.05954 8.47786 3.66732C8.47786 2.2751 9.60648 1.14648 10.9987 1.14648Z" fill="#F1F1F1"/>
    <path fill-rule="evenodd" clip-rule="evenodd" d="M10.999 4.81317C11.3787 4.81317 11.6865 5.12098 11.6865 5.50067L11.6865 16.5007C11.6865 16.8804 11.3787 17.1882 10.999 17.1882C10.6193 17.1882 10.3115 16.8804 10.3115 16.5007L10.3115 5.50067C10.3115 5.12098 10.6193 4.81317 10.999 4.81317Z" fill="#F1F1F1"/>
    <path fill-rule="evenodd" clip-rule="evenodd" d="M18.1307 10.2853C18.7634 10.9181 19.0195 11.8113 19.0195 12.834L19.0195 16.5007C19.0195 16.8803 18.7117 17.1882 18.332 17.1882C17.9523 17.1882 17.6445 16.8803 17.6445 16.5007L17.6445 12.834C17.6445 12.0233 17.4423 11.5415 17.1584 11.2576C16.8745 10.9737 16.3927 10.7715 15.582 10.7715L6.41537 10.7715C5.60467 10.7715 5.12293 10.9737 4.839 11.2576C4.55507 11.5415 4.35287 12.0233 4.35287 12.834L4.35286 16.5007C4.35286 16.8803 4.04506 17.1882 3.66536 17.1882C3.28567 17.1882 2.97786 16.8803 2.97786 16.5007L2.97787 12.834C2.97787 11.8113 3.23399 10.9181 3.86673 10.2853C4.49947 9.65261 5.39272 9.39648 6.41537 9.39648L15.582 9.39648C16.6047 9.39648 17.4979 9.65261 18.1307 10.2853Z" fill="#F1F1F1"/>
</svg>
