<svg width="22" height="22" viewBox="0 0 22 22" fill="none" xmlns="http://www.w3.org/2000/svg">
    <path fill-rule="evenodd" clip-rule="evenodd" d="M16.4172 2.52081C15.4861 2.52081 14.7397 3.26718 14.7397 4.19831C14.7397 5.09474 15.4292 5.81721 16.302 5.87382C16.3752 5.86732 16.4501 5.86732 16.5234 5.87382C17.3946 5.81726 18.0871 5.09573 18.0947 4.19586C18.0934 3.27327 17.3458 2.52081 16.4172 2.52081ZM13.3647 4.19831C13.3647 2.50779 14.7267 1.14581 16.4172 1.14581C18.1095 1.14581 19.4697 2.51869 19.4697 4.19831V4.20323H19.4697C19.4579 5.85224 18.1599 7.19112 16.5246 7.25037C16.4872 7.25172 16.4498 7.25002 16.4127 7.24528C16.3756 7.25002 16.3381 7.25172 16.3007 7.25037C14.6663 7.19115 13.3647 5.85201 13.3647 4.19831Z" fill="#F1F1F1"/>
    <path fill-rule="evenodd" clip-rule="evenodd" d="M15.4093 8.11362C16.8029 7.86948 18.392 8.10224 19.5472 8.86879L19.5485 8.86961C20.3381 9.39601 20.824 10.1588 20.824 11.0091C20.824 11.8595 20.3381 12.6223 19.5485 13.1487C18.4018 13.9161 16.8317 14.148 15.4416 13.9147C15.0672 13.8518 14.8146 13.4973 14.8774 13.1228C14.9403 12.7484 15.2948 12.4958 15.6693 12.5586C16.7903 12.7468 17.988 12.539 18.7845 12.0054L18.7858 12.0046C19.2887 11.6693 19.449 11.2954 19.449 11.0091C19.449 10.723 19.2888 10.3493 18.7864 10.0141C17.98 9.47928 16.7643 9.27218 15.6466 9.46799C15.2726 9.53351 14.9163 9.28344 14.8508 8.90944C14.7852 8.53544 15.0353 8.17913 15.4093 8.11362Z" fill="#F1F1F1"/>
    <path fill-rule="evenodd" clip-rule="evenodd" d="M2.50244 4.19831C2.50244 2.51869 3.86268 1.14581 5.55494 1.14581C7.24547 1.14581 8.60744 2.50779 8.60744 4.19831C8.60744 5.85201 7.30591 7.19115 5.6715 7.25037C5.63409 7.25172 5.59664 7.25002 5.55953 7.24528C5.52242 7.25002 5.48497 7.25172 5.44755 7.25037C3.81228 7.19112 2.51424 5.85224 2.50246 4.20323L2.50244 4.19831ZM3.87744 4.19587C3.88512 5.09573 4.57757 5.81726 5.44884 5.87382C5.52204 5.86732 5.59702 5.86732 5.67022 5.87382C6.54299 5.81721 7.23244 5.09474 7.23244 4.19831C7.23244 3.26718 6.48608 2.52081 5.55494 2.52081C4.62636 2.52081 3.87876 3.27328 3.87744 4.19587Z" fill="#F1F1F1"/>
    <path fill-rule="evenodd" clip-rule="evenodd" d="M3.18556 10.0141C3.992 9.47928 5.2076 9.27218 6.32536 9.46799C6.69936 9.53351 7.05566 9.28344 7.12118 8.90944C7.18669 8.53544 6.93662 8.17913 6.56262 8.11362C5.169 7.86948 3.57993 8.10224 2.4247 8.86879L2.4247 8.86879L2.42347 8.86961C1.63386 9.39601 1.14795 10.1588 1.14795 11.0091C1.14795 11.8593 1.63361 12.6219 2.42285 13.1483C3.56956 13.9161 5.13995 14.1481 6.53032 13.9147C6.90477 13.8518 7.15737 13.4973 7.0945 13.1228C7.03164 12.7484 6.67712 12.4958 6.30266 12.5586C5.18161 12.7468 3.98398 12.539 3.18742 12.0054L3.18618 12.0046C2.68328 11.6693 2.52295 11.2954 2.52295 11.0091C2.52295 10.723 2.68315 10.3493 3.18556 10.0141Z" fill="#F1F1F1"/>
    <path fill-rule="evenodd" clip-rule="evenodd" d="M10.9172 9.36829C9.98611 9.36829 9.23975 10.1146 9.23975 11.0458C9.23975 11.9422 9.9292 12.6647 10.802 12.7213C10.8762 12.7147 10.9523 12.7148 11.0264 12.7216C11.8906 12.672 12.587 11.9481 12.5947 11.0433C12.5934 10.1207 11.8458 9.36829 10.9172 9.36829ZM7.86475 11.0458C7.86475 9.35526 9.22671 7.99329 10.9172 7.99329C12.6095 7.99329 13.9697 9.36616 13.9697 11.0458V11.0507H13.9697C13.958 12.6953 12.6633 14.0504 11.0197 14.098C10.9839 14.099 10.9481 14.0973 10.9127 14.0928C10.8756 14.0975 10.8381 14.0992 10.8007 14.0978C9.16627 14.0386 7.86475 12.6995 7.86475 11.0458Z" fill="#F1F1F1"/>
    <path fill-rule="evenodd" clip-rule="evenodd" d="M11.0031 14.882C12.0742 14.882 13.1823 15.1488 14.0485 15.7262C14.8381 16.2526 15.324 17.0154 15.324 17.8658C15.324 18.716 14.8383 19.4787 14.0488 20.0051C13.179 20.5866 12.0713 20.8564 10.9997 20.8564C9.92809 20.8564 8.82039 20.5866 7.95051 20.0051C7.16109 19.4787 6.67529 18.716 6.67529 17.8658C6.67529 17.0154 7.16121 16.2526 7.95081 15.7262L7.95246 15.7251L7.95247 15.7251C8.82236 15.1488 9.93178 14.882 11.0031 14.882ZM8.71271 16.8708C8.21045 17.206 8.05029 17.5796 8.05029 17.8658C8.05029 18.1521 8.21063 18.526 8.71352 18.8612L8.71435 18.8618C9.31105 19.2608 10.1373 19.4814 10.9997 19.4814C11.862 19.4814 12.6883 19.2608 13.285 18.8618L13.2858 18.8612C13.7887 18.526 13.949 18.1521 13.949 17.8658C13.949 17.5795 13.7887 17.2056 13.2858 16.8703C12.6945 16.4761 11.8684 16.257 11.0031 16.257C10.1384 16.257 9.30942 16.4758 8.71271 16.8708Z" fill="#F1F1F1"/>
</svg>
