<svg width="22" height="22" viewBox="0 0 22 22" fill="none" xmlns="http://www.w3.org/2000/svg">
    <path fill-rule="evenodd" clip-rule="evenodd" d="M11 8.9375C9.86091 8.9375 8.9375 9.86091 8.9375 11C8.9375 12.1391 9.86091 13.0625 11 13.0625C12.1391 13.0625 13.0625 12.1391 13.0625 11C13.0625 9.86091 12.1391 8.9375 11 8.9375ZM7.5625 11C7.5625 9.10152 9.10152 7.5625 11 7.5625C12.8985 7.5625 14.4375 9.10152 14.4375 11C14.4375 12.8985 12.8985 14.4375 11 14.4375C9.10152 14.4375 7.5625 12.8985 7.5625 11Z" fill="#F1F1F1"/>
    <path fill-rule="evenodd" clip-rule="evenodd" d="M8.80335 3.45599C8.55798 3.0472 8.04125 2.92004 7.65751 3.14834L7.64751 3.15429L6.06163 4.0617C5.55987 4.34842 5.38677 4.99848 5.67378 5.49523L5.0785 5.83917L5.6733 5.49441C6.16378 6.34061 6.29564 7.26808 5.8575 8.02837C5.41943 8.78856 4.55122 9.13917 3.57516 9.13917C2.99471 9.13917 2.521 9.61734 2.521 10.1933V11.8067C2.521 12.3827 2.99471 12.8608 3.57516 12.8608C4.55122 12.8608 5.41943 13.2114 5.8575 13.9716C6.29558 14.7318 6.16381 15.6591 5.6735 16.5053C5.38688 17.0019 5.55967 17.6515 6.06126 17.9381L7.65756 18.8516C8.04129 19.0799 8.55796 18.9528 8.80333 18.544L8.90185 18.3739C9.39215 17.528 10.1312 16.9515 11.0082 16.9515C11.8858 16.9515 12.6226 17.5284 13.1085 18.3753C13.1087 18.3757 13.1089 18.376 13.1091 18.3764L13.2061 18.544C13.4515 18.9528 13.9682 19.08 14.352 18.8517L14.362 18.8457L15.9479 17.9383C16.4483 17.6523 16.624 17.0113 16.335 16.5035C15.8455 15.6578 15.7142 14.7313 16.152 13.9716C16.5901 13.2114 17.4583 12.8608 18.4343 12.8608C19.0148 12.8608 19.4885 12.3827 19.4885 11.8067V10.1933C19.4885 9.61288 19.0103 9.13917 18.4343 9.13917C17.4583 9.13917 16.5901 8.78856 16.152 8.02837C15.7139 7.26823 15.8457 6.34097 16.3359 5.4949C16.6226 4.99819 16.4499 4.34857 15.9482 4.06192L14.3519 3.14843C13.9682 2.92013 13.4515 3.0472 13.2061 3.45599L13.1076 3.62613C12.6173 4.47204 11.8783 5.04854 11.0013 5.04854C10.1237 5.04854 9.38702 4.47172 8.90119 3.62499C8.90092 3.62452 8.90065 3.62405 8.90038 3.62358L8.80335 3.45599ZM6.95994 1.96342C8.02275 1.33517 9.37085 1.72061 9.98684 2.75599L9.99102 2.76301L10.0918 2.9372L10.0933 2.93975C10.4325 3.53142 10.7862 3.67354 11.0013 3.67354C11.2174 3.67354 11.5739 3.53021 11.9177 2.9372C11.9176 2.9373 11.9177 2.9371 11.9177 2.9372L12.0226 2.75596C12.6386 1.72058 13.9868 1.33517 15.0496 1.96343L16.6304 2.86808C17.797 3.5347 18.1926 5.02986 17.5263 6.18311L17.5258 6.18393C17.1821 6.77689 17.2361 7.15567 17.3433 7.34184C17.4507 7.52811 17.7512 7.76417 18.4343 7.76417C19.765 7.76417 20.8635 8.84879 20.8635 10.1933V11.8067C20.8635 13.1373 19.7789 14.2358 18.4343 14.2358C17.7512 14.2358 17.4507 14.4719 17.3433 14.6582C17.2361 14.8443 17.1821 15.2231 17.5258 15.8161L17.5279 15.8197C18.1909 16.9799 17.7979 18.4645 16.6308 19.1317C16.6307 19.1318 16.6309 19.1316 16.6308 19.1317L15.0495 20.0366C13.9867 20.6648 12.6386 20.2794 12.0227 19.244L12.0185 19.237L11.9177 19.0628L11.9162 19.0602C11.577 18.4686 11.2233 18.3265 11.0082 18.3265C10.7921 18.3265 10.4356 18.4698 10.0918 19.0628C10.0918 19.0629 10.0919 19.0627 10.0918 19.0628L9.98688 19.244C9.37091 20.2794 8.02282 20.6648 6.96002 20.0366L5.37907 19.1319C5.37894 19.1318 5.37919 19.132 5.37907 19.1319C4.21278 18.4652 3.81696 16.97 4.48321 15.8169L4.48369 15.8161C4.82738 15.2231 4.77344 14.8443 4.66616 14.6582C4.55882 14.4719 4.25827 14.2358 3.57516 14.2358C2.23062 14.2358 1.146 13.1373 1.146 11.8067V10.1933C1.146 8.86266 2.23062 7.76417 3.57516 7.76417C4.25827 7.76417 4.55882 7.52811 4.66616 7.34184C4.77344 7.15567 4.82738 6.77689 4.48369 6.18393L4.48321 6.18311C3.81696 5.02998 4.21241 3.53501 5.3787 2.8683L6.95994 1.96342Z" fill="#F1F1F1"/>
</svg>
