<?xml version="1.0" encoding="UTF-8"?>
<svg version="1.1" xmlns="http://www.w3.org/2000/svg" width="256" height="256">
    <path d="M0 0 C0.77988281 0.350625 1.55976562 0.70125 2.36328125 1.0625 C17.01898594 8.3523842 25.82267656 21.13990687 31.1171875 36.171875 C36.41502186 59.14478505 27.19657292 76.73406842 15.5 95.75 C14.26941562 97.76034589 13.03895047 99.77076477 11.80859375 101.78125 C11.18194824 102.80347656 10.55530273 103.82570313 9.90966797 104.87890625 C8.00725665 107.98813998 6.11339044 111.10240349 4.22265625 114.21875 C3.6090625 115.22969727 2.99546875 116.24064453 2.36328125 117.28222656 C1.2024958 119.19525638 0.04229481 121.10864101 -1.1171875 123.02246094 C-4.52621525 128.63264149 -8.01992834 134.17702563 -11.60180664 139.67871094 C-13.12911574 142.02300664 -13.12911574 142.02300664 -14 145 C-13.01 145.33 -12.02 145.66 -11 146 C-10.64494385 146.83466797 -10.2898877 147.66933594 -9.92407227 148.52929688 C-8.30515215 151.14348636 -8.30515215 151.14348636 -6.06539917 151.44750977 C-3.43731504 151.59401095 -0.84652078 151.58632191 1.78515625 151.53125 C2.75601669 151.53451294 3.72687714 151.53777588 4.72715759 151.5411377 C8.8799791 151.55429264 13.03172679 151.50983455 17.18432617 151.47021484 C20.21826685 151.44958069 23.25118609 151.45862307 26.28515625 151.46875 C27.67010033 151.43932312 27.67010033 151.43932312 29.08302307 151.40930176 C35.95026378 151.43632851 41.29290728 153.11406507 47 157 C53.77081137 164.11232636 55.54435535 170.68474374 55.37109375 180.41796875 C54.72167285 186.68658942 52.60921973 191.47494865 48.0625 195.875 C42.44739827 200.29901954 37.6363503 202.24447827 30.42480469 202.27124023 C29.11284119 202.28142685 27.80087769 202.29161346 26.44915771 202.30210876 C25.40428822 202.30352025 25.40428822 202.30352025 24.33831024 202.30496025 C22.14253597 202.30864296 19.94720576 202.32542282 17.75152588 202.34571838 C11.5110301 202.40093502 5.27046884 202.43171838 -0.97021484 202.45629883 C-4.79517022 202.47226788 -8.61981141 202.50258596 -12.44460297 202.54106331 C-13.89407743 202.5526342 -15.34360832 202.55864296 -16.79312897 202.55874443 C-30.27064412 202.25834716 -30.27064412 202.25834716 -41.5625 208.5625 C-43.50064173 213.19718675 -43.76475212 217.04923625 -43 222 C-41.59327908 225.36389786 -40.5323232 227.23427771 -37.21702576 228.89097595 C-30.64885184 231.20820982 -24.51944025 231.44068182 -17.59765625 231.44140625 C-16.43874374 231.45461411 -15.27983124 231.46782196 -14.08580017 231.48143005 C-10.41134141 231.52209814 -6.7371321 231.5439522 -3.0625 231.5625 C0.63705184 231.58626894 4.33636836 231.61428889 8.03578186 231.65428162 C10.33162706 231.67869259 12.62759794 231.69350715 14.92356873 231.69789124 C15.95546829 231.70807785 16.98736786 231.71826447 18.05053711 231.72875977 C19.41546547 231.73517235 19.41546547 231.73517235 20.80796814 231.74171448 C23 232 23 232 25 234 C25.25 237 25.25 237 25 240 C22.35576066 242.64423934 21.11623368 242.26830201 17.42382812 242.30639648 C16.25501099 242.32238388 15.08619385 242.33837128 13.88195801 242.35484314 C11.97585754 242.36288719 11.97585754 242.36288719 10.03125 242.37109375 C8.72603394 242.38012222 7.42081787 242.3891507 6.0760498 242.39845276 C3.30523205 242.41496581 0.53453533 242.42264557 -2.23632812 242.42553711 C-5.76245715 242.43088768 -9.28742222 242.4684156 -12.81322479 242.51428127 C-16.19839094 242.55148013 -19.58338683 242.55258203 -22.96875 242.55859375 C-24.22328979 242.57812607 -25.47782959 242.59765839 -26.77038574 242.61778259 C-34.51117262 242.57838138 -40.60935558 241.5975263 -47 237 C-53.75476923 229.85745186 -55.54478158 223.33920044 -55.37109375 213.58203125 C-54.72167285 207.31341058 -52.60921973 202.52505135 -48.0625 198.125 C-42.44739827 193.70098046 -37.6363503 191.75552173 -30.42480469 191.72875977 C-29.11284119 191.71857315 -27.80087769 191.70838654 -26.44915771 191.69789124 C-25.40428822 191.69647975 -25.40428822 191.69647975 -24.33831024 191.69503975 C-22.14253597 191.69135704 -19.94720576 191.67457718 -17.75152588 191.65428162 C-11.5110301 191.59906498 -5.27046884 191.56828162 0.97021484 191.54370117 C4.79517022 191.52773212 8.61981141 191.49741404 12.44460297 191.45893669 C13.89407743 191.4473658 15.34360832 191.44135704 16.79312897 191.44125557 C30.27064412 191.74165284 30.27064412 191.74165284 41.5625 185.4375 C43.50064173 180.80281325 43.76475212 176.95076375 43 172 C41.57127507 168.58348385 40.5110623 166.70654362 37.09919739 165.11122131 C31.62101969 163.26354379 26.71656469 162.52102773 20.94921875 162.49609375 C20.12799026 162.48610855 19.30676178 162.47612335 18.46064758 162.46583557 C16.74228909 162.45077328 15.02384436 162.44360605 13.30541992 162.4440918 C10.67548126 162.43746974 8.04920455 162.38270769 5.41992188 162.32617188 C3.74220031 162.31737888 2.06446098 162.3114186 0.38671875 162.30859375 C-0.78676872 162.27625893 -0.78676872 162.27625893 -1.98396301 162.24327087 C-4.48236247 162.20978534 -4.48236247 162.20978534 -8 163 C-10.44670831 165.82202874 -10.44670831 165.82202874 -12 169 C-17.22259857 173.05630398 -22.65340142 172.77397544 -29 172 C-33.61581142 169.81356301 -35.72864085 167.50400196 -38 163 C-38.79560706 157.67445003 -39.10833027 151.93170555 -36.125 147.25 C-35.42375 146.5075 -34.7225 145.765 -34 145 C-33.34 145 -32.68 145 -32 145 C-36.06444079 137.35223121 -40.39858881 129.90414718 -44.91876221 122.51739502 C-46.0298208 120.70125482 -47.137117 118.88286405 -48.24365234 117.06396484 C-51.80330225 111.21635719 -55.37945665 105.37935057 -58.9765625 99.5546875 C-71.63370526 79.0175598 -82.04907063 61.23026221 -77.27734375 36.2109375 C-76.3623164 33.34360483 -75.30878064 30.70797046 -74 28 C-73.649375 27.22011719 -73.29875 26.44023437 -72.9375 25.63671875 C-65.6476158 10.98101406 -52.86009313 2.17732344 -37.828125 -3.1171875 C-25.72543577 -5.90821583 -11.22761586 -5.4263835 0 0 Z M-52 17 C-52.61617187 17.47824219 -53.23234375 17.95648438 -53.8671875 18.44921875 C-60.30796726 24.13141779 -65.2360731 33.57737469 -67 42 C-67.17344573 44.86896294 -67.27671168 47.69227711 -67.3125 50.5625 C-67.34150391 51.31080078 -67.37050781 52.05910156 -67.40039062 52.83007812 C-67.51907311 63.57540769 -62.53736696 72.43310116 -57.0625 81.375 C-56.49402344 82.31980225 -55.92554688 83.26460449 -55.33984375 84.23803711 C-53.57210905 87.16633441 -51.7890627 90.08469148 -50 93 C-49.45069824 93.89638184 -48.90139648 94.79276367 -48.33544922 95.71630859 C-45.13806721 100.92325339 -41.91530085 106.11404923 -38.68212891 111.29882812 C-35.67342776 116.13021703 -32.68165414 120.9720879 -29.6875 125.8125 C-28.58730921 127.58988685 -27.48705554 129.36723478 -26.38671875 131.14453125 C-25.59114583 132.4296875 -24.79557292 133.71484375 -24 135 C-20.04819158 133.68273053 -19.61989329 132.13066988 -17.55859375 128.55859375 C-16.89762695 127.42558838 -16.23666016 126.29258301 -15.55566406 125.12524414 C-15.03703796 124.22227097 -15.03703796 124.22227097 -14.50793457 123.30105591 C-13.07121551 120.79982288 -11.61559314 118.30980866 -10.1602478 115.81938171 C-9.43718329 114.58205289 -8.71503285 113.34418944 -7.99380493 112.10578918 C-5.32905889 107.53644266 -2.58333114 103.0287293 0.25 98.5625 C18.82640761 70.92918143 18.82640761 70.92918143 20.3046875 38.71484375 C18.23311653 32.52624307 15.00647441 27.12750739 11 22 C10.52175781 21.38382813 10.04351562 20.76765625 9.55078125 20.1328125 C3.86858221 13.69203274 -5.57737469 8.7639269 -14 7 C-28.75352653 6.10806232 -40.03694061 7.65243838 -52 17 Z M-27 154 C-27.16666667 157 -27.16666667 157 -27 160 C-25.88163776 161.34404775 -25.88163776 161.34404775 -23 161.125 C-20.11836224 161.34404775 -20.11836224 161.34404775 -19 160 C-18.83333333 157 -18.83333333 157 -19 154 C-20.11836224 152.65595225 -20.11836224 152.65595225 -23 152.875 C-25.88163776 152.65595225 -25.88163776 152.65595225 -27 154 Z " fill="#FFFFFF" transform="translate(78,4)"/>
    <path d="M0 0 C0.77988281 0.350625 1.55976563 0.70125 2.36328125 1.0625 C17.01898594 8.3523842 25.82267656 21.13990687 31.1171875 36.171875 C33.90478939 48.25970619 33.44863 62.7952938 28 74 C27.59910156 74.845625 27.19820313 75.69125 26.78515625 76.5625 C23.09571932 83.7488815 18.54809115 90.45208354 14.12890625 97.203125 C6.33241324 109.12101326 -1.25524594 121.17928913 -8.8125 133.25 C-9.22701416 133.91136963 -9.64152832 134.57273926 -10.06860352 135.25415039 C-12.14147791 138.56600366 -12.14147791 138.56600366 -14 142 C-13.01 142.33 -12.02 142.66 -11 143 C-6.99292931 148.28933331 -7.22264599 153.62569715 -8 160 C-10.18643699 164.61581142 -12.49599804 166.72864085 -17 169 C-22.54808604 169.82885269 -27.47140883 169.7240695 -32.5625 167.3125 C-35 165 -35 165 -36.00952148 162.39526367 C-37.71577437 159.84842624 -37.71577437 159.84842624 -40.0305481 159.53701782 C-42.79242555 159.35513044 -45.51736375 159.33458442 -48.28515625 159.36328125 C-49.29718613 159.35290329 -50.309216 159.34252533 -51.35191345 159.33183289 C-54.58911931 159.30207677 -57.82518162 159.30553906 -61.0625 159.3125 C-64.30306808 159.30362436 -67.54332757 159.28773409 -70.78379822 159.2610321 C-72.80145584 159.24604987 -74.81923379 159.24235294 -76.83692932 159.25080872 C-77.74804977 159.24707748 -78.65917023 159.24334625 -79.59790039 159.23950195 C-80.40159561 159.24125931 -81.20529083 159.24301666 -82.03334045 159.24482727 C-84 159 -84 159 -86 157 C-86.25 154 -86.25 154 -86 151 C-84 149 -84 149 -82.04006958 148.76190186 C-81.23939056 148.76667542 -80.43871155 148.77144897 -79.61376953 148.77636719 C-78.70587677 148.77586365 -77.79798401 148.77536011 -76.86257935 148.77484131 C-75.87925629 148.78211243 -74.89593323 148.78938354 -73.8828125 148.796875 C-71.81119163 148.78632672 -69.73957662 148.77457034 -67.66796875 148.76171875 C-64.39343337 148.75139519 -61.11971355 148.75003227 -57.84521484 148.77001953 C-54.6903724 148.78475956 -51.53752628 148.76235375 -48.3828125 148.734375 C-46.9139006 148.75742706 -46.9139006 148.75742706 -45.41531372 148.78094482 C-42.80424483 148.74349468 -40.52514514 148.6681708 -38 148 C-35.41958538 145.12006206 -35.41958538 145.12006206 -34 142 C-33.34 142 -32.68 142 -32 142 C-36.6082692 133.96454656 -41.41390463 126.09418483 -46.4375 118.3125 C-47.11981689 117.2488623 -47.80213379 116.18522461 -48.50512695 115.08935547 C-51.76191133 110.01447597 -55.03021883 104.94754471 -58.32249451 99.89561462 C-59.41344609 98.21997756 -60.50080527 96.54200339 -61.58813477 94.86401367 C-62.94690455 92.76763051 -64.31159953 90.67507089 -65.68334961 88.5871582 C-76.33187287 72.1255999 -81.01071336 55.78590251 -77.27734375 36.2109375 C-76.3623164 33.34360483 -75.30878064 30.70797046 -74 28 C-73.649375 27.22011719 -73.29875 26.44023438 -72.9375 25.63671875 C-65.6476158 10.98101406 -52.86009313 2.17732344 -37.828125 -3.1171875 C-25.72543577 -5.90821583 -11.22761586 -5.4263835 0 0 Z M-52 17 C-52.61617187 17.47824219 -53.23234375 17.95648438 -53.8671875 18.44921875 C-60.30796726 24.13141779 -65.2360731 33.57737469 -67 42 C-68.17241463 61.39289125 -62.30175638 72.94699817 -52 89 C-51.55205078 89.69899414 -51.10410156 90.39798828 -50.64257812 91.11816406 C-48.43411702 94.55555338 -46.21093685 97.98310929 -43.98046875 101.40625 C-40.4510739 106.8312617 -36.97474449 112.2898796 -33.5 117.75 C-32.90018311 118.69133789 -32.30036621 119.63267578 -31.68237305 120.60253906 C-31.11687744 121.49166992 -30.55138184 122.38080078 -29.96875 123.296875 C-29.21754883 124.47781738 -29.21754883 124.47781738 -28.45117188 125.68261719 C-27.4016158 127.35865794 -26.40377616 129.06745707 -25.43945312 130.79394531 C-24.72692383 131.88594238 -24.72692383 131.88594238 -24 133 C-23.34 133 -22.68 133 -22 133 C-20.4637348 130.98170174 -20.4637348 130.98170174 -18.91015625 128.34765625 C-18.2963208 127.35209717 -17.68248535 126.35653809 -17.05004883 125.33081055 C-16.39415771 124.25226807 -15.7382666 123.17372559 -15.0625 122.0625 C-13.69378622 119.84048152 -12.32398902 117.61913005 -10.953125 115.3984375 C-10.27830078 114.30241211 -9.60347656 113.20638672 -8.90820312 112.07714844 C-6.42882239 108.07892495 -3.88409381 104.12680997 -1.3125 100.1875 C-0.44236007 98.8478824 0.42743034 97.5080377 1.296875 96.16796875 C1.73064453 95.49942871 2.16441406 94.83088867 2.61132812 94.14208984 C5.23076862 90.10148315 7.84224744 86.05619566 10.4375 82 C10.93403076 81.23453857 11.43056152 80.46907715 11.94213867 79.68041992 C20.13242981 66.82475536 23.45133782 53.87848269 20.31640625 38.6875 C18.20465159 32.51872291 15.00455601 27.12505222 11 22 C10.52175781 21.38382813 10.04351562 20.76765625 9.55078125 20.1328125 C3.86858221 13.69203274 -5.57737469 8.7639269 -14 7 C-28.75352653 6.10806232 -40.03694061 7.65243838 -52 17 Z M-27 151 C-27.16666667 154 -27.16666667 154 -27 157 C-25.88163776 158.34404775 -25.88163776 158.34404775 -23 158.125 C-20.11836224 158.34404775 -20.11836224 158.34404775 -19 157 C-18.83333333 154 -18.83333333 154 -19 151 C-20.11836224 149.65595225 -20.11836224 149.65595225 -23 149.875 C-25.88163776 149.65595225 -25.88163776 149.65595225 -27 151 Z " fill="#FFFFFF" transform="translate(224,87)"/>
    <path d="M0 0 C6.29671422 3.64546613 10.25669741 9.1292571 12.5 16 C13.52913515 24.87222827 13.0486814 32.74403202 7.5 40 C1.70011527 45.61279168 -4.07911606 48.28314107 -12.1875 48.4375 C-19.92067973 48.2998413 -25.89547136 46.7246796 -31.375 41.0625 C-37.56741076 33.20290173 -38.52404309 25.88471072 -37.5 16 C-35.36807613 8.57297219 -31.1945133 3.75298473 -24.5 0 C-16.99776845 -3.63173353 -7.55303575 -3.4040237 0 0 Z M-25.375 15.125 C-27.06484251 19.44348642 -27.15960983 23.4267052 -26.5 28 C-24.33701163 32.40608743 -22.10319521 35.1987497 -17.5 37 C-12.45674616 37.68426057 -8.66923116 37.5739862 -4.0625 35.3125 C-0.70343988 32.28115306 1.19355631 30.25860352 1.81640625 25.66796875 C2.08213652 19.95048191 1.46847152 16.39749547 -2.5 12 C-6.33713196 8.61429533 -10.13401462 8.48708828 -15.0625 8.6484375 C-19.72526146 9.32095117 -22.35190292 11.69882331 -25.375 15.125 Z " fill="#FFFFFF" transform="translate(213.5,115)"/>
    <path d="M0 0 C6.29671422 3.64546613 10.25669741 9.1292571 12.5 16 C13.52913515 24.87222827 13.0486814 32.74403202 7.5 40 C1.70011527 45.61279168 -4.07911606 48.28314107 -12.1875 48.4375 C-19.92067973 48.2998413 -25.89547136 46.7246796 -31.375 41.0625 C-37.56741076 33.20290173 -38.52404309 25.88471072 -37.5 16 C-35.36807613 8.57297219 -31.1945133 3.75298473 -24.5 0 C-16.99776845 -3.63173353 -7.55303575 -3.4040237 0 0 Z M-25.375 15.125 C-27.06484251 19.44348642 -27.15960983 23.4267052 -26.5 28 C-24.33701163 32.40608743 -22.10319521 35.1987497 -17.5 37 C-12.45674616 37.68426057 -8.66923116 37.5739862 -4.0625 35.3125 C-0.70343988 32.28115306 1.19355631 30.25860352 1.81640625 25.66796875 C2.08213652 19.95048191 1.46847152 16.39749547 -2.5 12 C-6.33713196 8.61429533 -10.13401462 8.48708828 -15.0625 8.6484375 C-19.72526146 9.32095117 -22.35190292 11.69882331 -25.375 15.125 Z " fill="#FFFFFF" transform="translate(67.5,32)"/>
    <path d="M0 0 C3.5 0.25 3.5 0.25 5.5 2.25 C5.75 5.25 5.75 5.25 5.5 8.25 C3.5 10.25 3.5 10.25 0 10.5 C-3.5 10.25 -3.5 10.25 -5.5 8.25 C-5.75 5.25 -5.75 5.25 -5.5 2.25 C-3.5 0.25 -3.5 0.25 0 0 Z " fill="#FFFFFF" transform="translate(120.5,235.75)"/>
</svg>